<svg width="128" height="128" viewBox="0 0 128 128" fill="none" xmlns="http://www.w3.org/2000/svg">
<path fill-rule="evenodd" clip-rule="evenodd" d="M11.4122 111.234C7.31857 108.782 5.98769 103.476 8.43962 99.3822L56.3382 19.4123C58.7902 15.3187 64.0964 13.9878 68.1901 16.4397C72.2837 18.8917 73.6146 24.1979 71.1627 28.2916L23.2641 108.261C20.8122 112.355 15.5059 113.686 11.4122 111.234Z" fill="#888888"/>
<path fill-rule="evenodd" clip-rule="evenodd" d="M59.8099 16.4396C63.9036 13.9877 69.2099 15.3186 71.6618 19.4122L119.561 99.382C122.013 103.476 120.682 108.782 116.588 111.234C112.494 113.686 107.188 112.355 104.736 108.261L56.8374 28.2915C54.3854 24.1978 55.7163 18.8916 59.8099 16.4396Z" fill="#777777"/>
<path d="M75.602 84.322C75.602 90.1845 70.8496 94.937 64.9871 94.937C59.1246 94.937 54.3721 90.1845 54.3721 84.322C54.3721 78.4595 59.1246 73.707 64.9871 73.707C70.8496 73.707 75.602 78.4595 75.602 84.322Z" fill="#888888"/>
</svg>
