<svg width="128" height="128" viewBox="0 0 128 128" fill="none" xmlns="http://www.w3.org/2000/svg">
<path d="M57.5845 15.2674L12.8449 33.7798C10.3569 34.8095 10.3827 38.344 12.8862 39.3363L57.8124 57.1522C61.7597 58.7177 66.1557 58.7177 70.1029 57.1522L115.03 39.3357C117.533 38.344 117.56 34.8101 115.07 33.7805L70.3322 15.2667C66.2506 13.5778 61.6655 13.5778 57.5838 15.2667" fill="#666666"/>
<path d="M67.9438 66.8803V111.387C67.9438 113.504 70.0784 114.954 72.0461 114.174L122.108 94.7422C122.666 94.5209 123.145 94.1369 123.482 93.6401C123.82 93.1432 124 92.5565 124 91.9559V47.4495C124 45.3326 121.865 43.8831 119.898 44.6631L69.8363 64.0946C69.278 64.3161 68.7992 64.7001 68.4618 65.1969C68.1243 65.6938 67.9439 66.2798 67.9438 66.8803Z" fill="#888888"/>
<path d="M56.2537 69.1777L41.3965 76.3512L39.888 77.0804L8.52552 92.1078C6.53814 93.0669 4 91.6181 4 89.4096V47.6367C4 46.8377 4.40968 46.1479 4.95909 45.629C5.18449 45.4046 5.4402 45.2128 5.71877 45.0593C6.4676 44.6095 7.53658 44.4895 8.44548 44.849L56.0041 63.6931C58.4215 64.6522 58.6114 68.0389 56.2537 69.1777Z" fill="#777777"/>
</svg>
