<svg width="128" height="128" viewBox="0 0 128 128" fill="none" xmlns="http://www.w3.org/2000/svg">
<path d="M76.2472 35.156C65.4628 35.156 54.8334 39.7859 46.7184 48.8885V4H30.6597V79.5726C30.6597 79.5744 30.6597 79.5762 30.6597 79.5783C30.6597 104.112 50.5479 124 75.0817 124C99.6151 124 119.504 104.112 119.504 79.5783C119.504 55.0448 100.781 35.156 76.2472 35.156ZM75.0817 106.89C59.9973 106.89 47.769 94.662 47.769 79.578C47.769 64.4937 59.9973 52.2653 75.0817 52.2653C90.1657 52.2653 102.394 64.4937 102.394 79.578C102.394 94.6623 90.1657 106.89 75.0817 106.89Z" fill="#888888"/>
<path d="M18.9848 102.03C12.9179 102.03 8 106.948 8 113.015C8 119.082 12.9179 124 18.9848 124C25.0517 124 29.9697 119.082 29.9697 113.015C29.9697 106.948 25.0517 102.03 18.9848 102.03Z" fill="#666666"/>
</svg>
