<svg width="128" height="128" viewBox="0 0 128 128" fill="none" xmlns="http://www.w3.org/2000/svg">
<path fill-rule="evenodd" clip-rule="evenodd" d="M124 64C124 97.1371 97.1371 124 64 124C30.8629 124 4 97.1371 4 64C4 30.8629 30.8629 4 64 4C97.1371 4 124 30.8629 124 64ZM91.0701 83.0783V92.3947H94.4568V82.7502C94.4568 79.6447 92.4178 77.465 88.6912 77.465C87.3436 77.465 85.6443 78.0861 84.8006 79.0236L83.9568 79.9611C83.0662 78.4377 81.3084 77.4767 78.8709 77.4767C77.5115 77.4767 75.824 78.0978 75.1443 79.0353L74.9803 79.1877L74.8162 79.0353L74.4764 77.7932H71.4295V92.3947H74.8162V83.5588C74.8865 81.7541 76.5389 80.2658 78.5428 80.2658C80.2303 80.2658 81.2498 81.2033 81.2498 83.0666V92.4064H84.6365V83.5705C84.7068 81.7658 86.3592 80.2775 88.3631 80.2775C90.0506 80.2775 91.0701 81.215 91.0701 83.0783ZM91.9725 34.8439L35.16 91.6564L36.3436 92.84L93.1561 36.0275L91.9725 34.8439ZM38.8983 46.9377H39.5193L47.1248 57.0041H50.9217V56.3596L43.4451 46.715C47.0779 46.715 50.4764 44.1486 50.4764 40.1291C50.4764 35.9572 47.2889 33.5432 43.6561 33.5432H35.5701V57.0158H38.8983V46.9377ZM47.3475 40.258C47.3475 42.3322 45.6717 43.6096 43.8436 43.6096H38.9686V36.9064H43.8436C45.6717 36.9064 47.3475 38.1838 47.3475 40.258Z" fill="#888888"/>
</svg>
