<svg width="128" height="128" viewBox="0 0 128 128" fill="none" xmlns="http://www.w3.org/2000/svg">
<path d="M66.9202 57.2403V98.8403H59.1602V54.3203L66.9202 57.2403Z" fill="#888888"/>
<path d="M35.9199 53.3599C35.9199 42.7199 41.7199 36.9199 48.5199 36.9199C55.3199 36.9199 56.2799 37.8799 63.9999 41.7599C71.7199 45.6399 73.6799 46.5999 77.5599 46.5999C81.4399 46.5999 83.3599 43.6799 83.3599 37.8799H90.1199C91.0799 49.4799 84.3199 54.3199 77.5199 54.3199C70.7199 54.3199 68.7999 53.3599 62.0399 49.4799C55.2799 45.5999 53.3199 44.6399 49.4399 44.6399C45.5599 44.6399 43.6399 47.5599 42.6799 54.3199L35.9199 53.3599Z" fill="#888888"/>
<path d="M64 124C30.92 124 4 97.08 4 64C4 30.92 30.92 4 64 4C97.08 4 124 30.92 124 64C124 97.08 97.08 124 64 124ZM64 7.88C33.04 7.88 7.88 33.04 7.88 64C7.88 94.96 33.04 120.12 64 120.12C94.96 120.12 120.12 94.96 120.12 64C120.12 33.04 94.96 7.88 64 7.88Z" fill="#888888"/>
</svg>
