<svg width="128" height="128" viewBox="0 0 128 128" fill="none" xmlns="http://www.w3.org/2000/svg">
<path d="M82.4865 79.4414C83.2793 76.9189 93.009 46.3604 93.009 46.3604C97.6937 33.8198 106.775 22.0721 124 22.0721L99.5676 82.1081C94.5225 94.1441 85.1532 105.171 67.7117 105.171C67.7117 105.171 60.2883 53.7838 60.2162 52.6306C59.7838 53.8559 49.3333 80.8829 49.3333 80.8829C44.4324 93.3513 35.0631 105.099 17.6937 105.171L4 22.0721C15.3153 22.0721 29.2973 31.3694 30.3063 46.6486C30.3063 46.6486 32.036 77.1351 32.1081 79.5135C33.1171 76.9189 44.9369 46.2883 44.9369 46.2883C49.6216 33.8198 58.4865 22 75.0631 22C75.0631 22 82.1982 76.8468 82.4865 79.4414Z" fill="#888888"/>
</svg>
