<svg width="128" height="128" viewBox="0 0 128 128" fill="none" xmlns="http://www.w3.org/2000/svg">
<path fill-rule="evenodd" clip-rule="evenodd" d="M25.25 6H102.75C114.5 6 124 15.5 124 27.25V101.75C124 113.5 114.5 123 102.75 123H25.25C13.5 123 4 113.5 4 101.75V27.25C4 15.5 13.5 6 25.25 6ZM52.2 76.0001H33.6L29.8 87.8001C29.7 88.2501 29.3 88.5501 28.85 88.5001H19.45C18.9 88.5001 18.75 88.2001 18.9 87.6001L35 41.4501C35.15 40.9501 35.3 40.5001 35.5 39.9001C35.7 38.8501 35.8 37.7501 35.8 36.6501C35.75 36.4001 35.95 36.1501 36.2 36.1001H36.35H49.15C49.5 36.1001 49.75 36.2501 49.8 36.5001L68.05 87.5001C68.2 88.0501 68.05 88.3001 67.55 88.3001H57.1C56.75 88.3501 56.4 88.1001 56.3 87.7501L52.2 75.7501V76.0001ZM36.5 66.0501H49.2C48.9 65.0001 48.5 63.7501 48.05 62.4501C47.6 61.1001 47.15 59.6501 46.7 58.1501C46.4501 57.3754 46.2127 56.6133 45.9753 55.8511L45.975 55.8501C45.7375 55.0876 45.5 54.3251 45.25 53.5501C44.75 52.0001 44.3 50.5501 43.9 49.1001C43.723 48.4805 43.5557 47.8805 43.3939 47.3C43.1902 46.569 42.9951 45.869 42.8 45.2001H42.7C42.25 47.3501 41.7 49.5001 41 51.6501C40.7145 52.5638 40.4289 53.4921 40.1406 54.4292L40.1402 54.4306C39.6714 55.9546 39.1953 57.5023 38.7 59.0501C38.05 61.6001 37.25 63.9501 36.5 66.0501ZM81.65 71.5001H97.5C98.1699 71.5001 98.8133 71.5532 99.4369 71.6047C100.023 71.6531 100.593 71.7001 101.15 71.7001C102.3 71.7001 103.25 71.6501 104.05 71.5501C104.331 71.5326 104.581 71.515 104.8 71.4996C105.205 71.4712 105.505 71.4501 105.7 71.4501C106.05 71.4501 106.35 71.1501 106.4 70.8001C106.422 70.5997 106.445 70.3497 106.471 70.05C106.504 69.677 106.545 69.227 106.6 68.7001C106.65 67.7501 106.7 66.7001 106.7 65.5001C106.7 63.4501 106.4 61.4001 105.75 59.4001C105.1 57.3001 104.05 55.4001 102.75 53.7001C101.35 51.9501 99.55 50.6001 97.5 49.7001C95.05 48.6001 92.4 48.1001 89.75 48.1501C86.55 48.1501 83.75 48.5501 81.4 49.7001C79.05 50.8501 77 52.4501 75.35 54.4501C73.65 56.5001 72.4 58.8001 71.6 61.3001C70.75 63.9001 70.35 66.5501 70.35 69.2501C70.35 71.7501 70.7 74.2001 71.4 76.5501C72.1 78.9501 73.25 81.1501 74.85 83.1001C76.55 85.1501 78.7 86.8001 81.15 87.8501C83.75 89.0001 86.95 89.6001 90.75 89.6001C93.15 89.6501 95.5 89.4501 97.85 89.0001C99.6 88.7001 101.25 88.2001 102.85 87.5001C103 87.4001 103.1 87.3001 103.2 87.1501C103.25 86.9501 103.3 86.7501 103.3 86.5501V78.9001C103.3 78.4001 103.15 78.3001 102.9 78.5001C101.5 79.0501 100 79.4501 98.45 79.6501C96.75 80.0001 95 80.1501 93.25 80.2001C91.05 80.2501 88.85 79.8001 86.85 78.9501C85.35 78.3501 84.1 77.3001 83.2 75.9501C82.35 74.6001 81.85 73.0501 81.65 71.5001ZM92.2 64.2001H81.65C81.8 62.9501 82.15 61.7501 82.75 60.6001C84.05 58.1001 86.65 56.6501 89.4 56.8001C92.35 56.7001 95 58.6001 95.9 61.4001C96.1 62.0001 96.2 62.6001 96.2 63.2501V63.7501C95.85 64.0001 95.45 64.1001 95.05 64.1501C94.45 64.2001 93.5 64.2001 92.2 64.2001Z" fill="#888888"/>
</svg>
