<svg width="128" height="128" viewBox="0 0 128 128" fill="none" xmlns="http://www.w3.org/2000/svg">
<path fill-rule="evenodd" clip-rule="evenodd" d="M25.2481 5H102.752C114.499 5 124 14.5008 124 26.2481V100.757C124 112.504 114.499 122.005 102.752 122.005H25.2481C13.5008 122.005 4 112.504 4 100.757V26.2481C4 14.5008 13.5008 5 25.2481 5ZM51.1294 75.0156H32.5491L28.7581 86.8097C28.6645 87.2777 28.2433 87.5586 27.8221 87.5117H18.4149C17.8533 87.5117 17.7129 87.2309 17.8533 86.6225L33.9532 40.3823C34.0936 39.8674 34.234 39.3526 34.468 38.7442C34.702 37.7146 34.8892 36.6381 34.8892 35.5617C34.8424 35.3277 35.0296 35.0468 35.3104 35H35.4508H48.2745C48.6021 35 48.8829 35.1405 48.9297 35.4213L67.0889 86.7161C67.2293 87.2777 67.0889 87.5117 66.5741 87.5117H56.1372C55.8096 87.5586 55.4352 87.3245 55.3416 86.9501L51.1294 75.0156ZM35.4508 65.0469H48.1341C47.8533 64.0172 47.4321 62.7536 46.9641 61.4431C46.6369 60.4944 46.3327 59.5 46.0193 58.4758L46.0193 58.4757C45.8843 58.0347 45.7477 57.5881 45.6068 57.1373C45.3494 56.3651 45.1154 55.6046 44.8814 54.844C44.6474 54.0835 44.4134 53.323 44.156 52.5507C43.6412 51.0064 43.22 49.5556 42.7988 48.1048L42.7987 48.1046L42.7987 48.1046C42.6134 47.487 42.4463 46.8875 42.2853 46.3102L42.2853 46.3101L42.2852 46.31C42.0802 45.5748 41.8852 44.8754 41.6755 44.22H41.5819C41.1138 46.3729 40.599 48.5258 39.897 50.6787C39.5878 51.6643 39.2785 52.6739 38.966 53.6943L38.966 53.6944C38.5217 55.1449 38.0708 56.6172 37.6037 58.0734C36.9953 60.6007 36.1996 62.9408 35.4508 65.0469ZM105.42 78.7599V48.1047C105.42 48.0579 105.42 48.0111 105.466 47.9643C105.466 47.6835 105.139 47.4963 104.905 47.5431H95.3571C94.8891 47.5431 94.6551 47.7771 94.6551 48.1047V76.5134C93.7191 77.2155 92.6894 77.7303 91.5194 78.1515C90.3961 78.5727 89.2729 78.7599 88.1028 78.7599C85.8563 78.7599 83.8907 78.1047 82.9546 76.841C82.0186 75.5774 81.5038 73.8457 81.5038 71.646V48.1515V48.0111C81.457 47.6367 81.1294 47.4495 80.8485 47.4963H71.301H71.1606C70.7861 47.5431 70.5989 47.8707 70.6457 48.1515V72.9565C70.5989 75.3902 70.9266 77.7771 71.6286 80.0704C72.1902 81.8956 73.1262 83.5337 74.4367 84.9378C75.6067 86.2014 77.1044 87.1375 78.6957 87.6991C80.4273 88.3075 82.2526 88.5415 84.1247 88.5415C85.9967 88.5415 87.9156 88.3075 89.6941 87.7927C91.8002 87.1842 93.7659 86.1546 95.3571 84.7038V84.7038C95.3571 85.0314 95.3571 85.4058 95.4507 85.7334L95.7315 86.997C95.8719 87.3715 96.2464 87.6055 96.6676 87.5587H105.232C105.654 87.5587 105.841 87.3715 105.794 86.9034C105.747 86.3886 105.7 85.9206 105.607 85.125C105.56 84.3293 105.513 83.3933 105.466 82.3637C105.42 81.2872 105.42 80.1172 105.42 78.7599Z" fill="#888888"/>
</svg>
