<svg width="128" height="128" viewBox="0 0 128 128" fill="none" xmlns="http://www.w3.org/2000/svg">
<g clip-path="url(#clip0_582_111)">
<path d="M44.0081 124C55.0481 124 64.0081 115.04 64.0081 104V84H44.0081C32.9681 84 24.0081 92.96 24.0081 104C24.0081 115.04 32.9681 124 44.0081 124Z" fill="#888888"/>
<path d="M24.0081 64C24.0081 52.96 32.9681 44 44.0081 44H64.0081V84H44.0081C32.9681 84 24.0081 75.04 24.0081 64Z" fill="#888888"/>
<path d="M24.0081 24C24.0081 12.96 32.9681 4 44.0081 4H64.0081V44H44.0081C32.9681 44 24.0081 35.04 24.0081 24Z" fill="#888888"/>
<path d="M64.0081 4H84.0081C95.0481 4 104.008 12.96 104.008 24C104.008 35.04 95.0481 44 84.0081 44H64.0081V4Z" fill="#888888"/>
<path d="M104.008 64C104.008 75.04 95.0481 84 84.0081 84C72.9681 84 64.0081 75.04 64.0081 64C64.0081 52.96 72.9681 44 84.0081 44C95.0481 44 104.008 52.96 104.008 64Z" fill="#888888"/>
</g>
<defs>
<clipPath id="clip0_582_111">
<rect width="80.016" height="120" fill="white" transform="translate(24 4)"/>
</clipPath>
</defs>
</svg>
