<svg width="128" height="128" viewBox="0 0 128 128" fill="none" xmlns="http://www.w3.org/2000/svg">
<path fill-rule="evenodd" clip-rule="evenodd" d="M102.75 6H25.25C13.5 6 4 15.5 4 27.25V101.75C4 113.5 13.5 123 25.25 123H102.75C114.5 123 124 113.5 124 101.75V27.25C124 15.5 114.5 6 102.75 6ZM43.4 76H62L66.1 87.8999C66.2 88.25 66.55 88.4999 66.9 88.45H77.35C77.85 88.45 78 88.2 77.85 87.6499L59.6 36.15C59.55 35.9 59.35 35.75 58.95 35.75H46C45.75 35.7999 45.55 36.0499 45.6 36.2999C45.6 37.4 45.5 38.5 45.3 39.5499C45.1583 39.9751 45.0417 40.3751 44.9324 40.75C44.8875 40.9042 44.8438 41.0542 44.8 41.2L28.7 87.55C28.55 88.15 28.7 88.45 29.25 88.45H38.65C39.1 88.4999 39.5 88.2 39.6 87.75L43.4 76ZM59 65.8499H46.3C47.05 63.75 47.8 61.3999 48.5 58.8499C48.9953 57.3021 49.4715 55.7543 49.9403 54.2302C50.2287 53.2927 50.5144 52.364 50.8 51.45C51.5 49.2999 52.05 47.15 52.5 45H52.6C52.7951 45.6689 52.9903 46.3689 53.194 47.1C53.3558 47.6804 53.523 48.2804 53.7 48.9C54.1 50.35 54.55 51.7999 55.05 53.3499C55.3 54.1249 55.5375 54.8874 55.775 55.6499C56.0125 56.4124 56.25 57.1749 56.5 57.95C56.95 59.45 57.4 60.9 57.85 62.25C58.3 63.5499 58.7 64.7999 59 65.8499ZM84.55 42.75C85.75 43.9 87.35 44.5499 89 44.5C90.7 44.5999 92.4 43.95 93.55 42.75C94.75 41.5 95.35 39.85 95.3 38.15C95.35 36.5 94.75 34.9 93.65 33.7C92.55 32.55 91.05 31.95 89.1 31.95C87.45 31.95 85.85 32.55 84.65 33.7C83.45 34.85 82.8 36.45 82.85 38.15C82.8 39.85 83.4 41.5 84.55 42.75ZM83.4 49.4V87.8999C83.4 88.3999 83.65 88.7 84.15 88.7H93.95C94.4 88.7 94.6 88.45 94.6 87.8999V49.4C94.6 48.95 94.4 48.7 93.95 48.7H84.05C83.6 48.7 83.4 48.9 83.4 49.4Z" fill="#888888"/>
</svg>
