<svg width="128" height="128" viewBox="0 0 128 128" fill="none" xmlns="http://www.w3.org/2000/svg">
<path fill-rule="evenodd" clip-rule="evenodd" d="M25.25 6H102.75C114.5 6 124 15.5 124 27.25V101.75C124 113.5 114.5 123 102.75 123H25.25C13.5 123 4 113.5 4 101.75V27.25C4 15.5 13.5 6 25.25 6ZM47.5999 36.5995V88.0995C47.5999 88.6495 47.35 88.8995 46.9 88.8995H37.0999C36.6499 88.8995 36.45 88.6495 36.45 88.0995V36.5995C36.45 36.1495 36.7 35.9495 37.15 35.9495H46.9C47.2 35.8995 47.5 36.0995 47.5499 36.4495C47.5999 36.4995 47.5999 36.5495 47.5999 36.5995ZM65.75 87.2496C69.1 88.7996 72.8 89.5496 76.5 89.4996C79.1 89.4996 81.7 89.2496 84.2 88.7996C87 88.2996 89.75 87.4996 92.35 86.3996C92.7 86.2496 92.85 85.9496 92.85 85.5996C92.8423 85.4686 92.8346 85.3341 92.8267 85.1963C92.7834 84.4402 92.7346 83.5878 92.65 82.6996C92.6454 82.5988 92.6408 82.4988 92.6363 82.3996C92.5912 81.4171 92.55 80.5171 92.55 79.6996V32.0996V31.9996C92.5 31.7996 92.3 31.5996 92.05 31.6496H81.9C81.55 31.6496 81.4 31.8496 81.4 32.1996V47.9996C81.1224 47.9765 80.8661 47.964 80.6264 47.9524C80.348 47.9389 80.0918 47.9265 79.85 47.8996C79.4 47.8496 79.05 47.8496 78.8 47.8496C73.85 47.8496 69.65 48.7996 66.15 50.7496C62.85 52.5496 60.1 55.2496 58.2 58.4996C56.35 61.6996 55.4 65.3496 55.45 69.0496C55.45 73.5996 56.35 77.3996 58.2 80.4496C60 83.3996 62.6 85.7996 65.75 87.2496ZM81.4 57.4996V79.4996C80.85 79.6996 80.25 79.7996 79.6 79.7496C78.95 79.7996 78.25 79.8496 77.5 79.8496C76.1 79.8496 74.7 79.6496 73.35 79.1996C72.05 78.7996 70.9 78.0996 69.95 77.1996C68.95 76.1996 68.2 74.9996 67.7 73.6496C67.1 71.9996 66.8 70.2496 66.85 68.4996C66.85 65.8996 67.4 63.7496 68.5 62.1496C69.6 60.5496 71.05 59.2996 72.75 58.4496C74.5 57.5496 76.45 57.1496 78.4 57.1496C78.95 57.1496 79.5 57.1996 80.05 57.2496C80.5 57.2996 80.95 57.3996 81.4 57.4996Z" fill="#888888"/>
</svg>
