<svg width="128" height="128" viewBox="0 0 128 128" fill="none" xmlns="http://www.w3.org/2000/svg">
<path fill-rule="evenodd" clip-rule="evenodd" d="M25.2481 5H102.752C114.499 5 124 14.5008 124 26.2481V100.757C124 112.504 114.499 122.005 102.752 122.005H25.2481C13.5008 122.005 4 112.504 4 100.757V26.2481C4 14.5008 13.5008 5 25.2481 5ZM66.9953 87.6988H35.3104C34.7488 87.6988 34.5148 87.418 34.5148 86.8096V35.7019C34.468 35.3743 34.702 35.0467 35.0764 34.9999H35.2636H45.0452C45.2792 34.9531 45.6068 35.1403 45.6068 35.4211V35.5615V77.5428H68.727C69.2418 77.5428 69.3822 77.7768 69.2886 78.2448L67.8377 86.95C67.8377 87.184 67.6973 87.418 67.5569 87.5584C67.3697 87.652 67.1825 87.6988 66.9953 87.6988ZM83.7504 47.6834H74.9985C74.9048 47.6366 74.858 47.6366 74.7644 47.7302C74.5304 47.777 74.39 48.0578 74.4368 48.2918C74.5772 49.415 74.6708 50.4915 74.7176 51.6147C74.7412 52.2522 74.753 52.9016 74.7648 53.5569C74.7764 54.2005 74.788 54.8499 74.8112 55.4993C74.858 56.8095 74.858 58.0262 74.858 59.2428V59.2434V86.9501V87.1373C74.9048 87.5586 75.2325 87.7926 75.6537 87.7458H85.3885C85.8565 87.7458 86.0437 87.5586 86.0437 87.0437V61.5367C86.7925 60.6943 87.7754 60.1327 88.7582 59.6646C91.7067 58.401 94.9828 57.7926 98.2122 57.9798C98.7738 57.9798 99.0078 57.8394 99.0078 57.4182V47.6366V47.4494C98.961 47.0749 98.6334 46.8409 98.3058 46.8877C95.7317 46.7941 93.1576 47.4026 90.8643 48.6662C88.8518 49.7895 87.0265 51.2403 85.5289 52.972C85.5289 52.3636 85.4821 51.7551 85.4353 51.1935C85.3885 50.6787 85.2949 50.1639 85.2013 49.6491C85.1077 49.2278 84.9673 48.8066 84.78 48.479C84.6396 48.011 84.2652 47.6834 83.7504 47.6834Z" fill="#888888"/>
</svg>
