<svg width="128" height="128" viewBox="0 0 128 128" fill="none" xmlns="http://www.w3.org/2000/svg">
<path fill-rule="evenodd" clip-rule="evenodd" d="M25.25 6H102.75C114.5 6 124 15.5 124 27.25V101.75C124 113.5 114.5 123 102.75 123H25.25C13.5 123 4 113.5 4 101.75V27.25C4 15.5 13.5 6 25.25 6ZM31 88.05V36.6C31 36.25 31.15 36.05 31.5 36.05C32.35 36.05 33.15 36.05 34.3 36C34.918 35.9743 35.5492 35.9618 36.2006 35.9489C36.814 35.9367 37.4452 35.9243 38.1 35.9C38.7982 35.8741 39.5232 35.8617 40.2749 35.8487H40.2751C40.9767 35.8366 41.7017 35.8241 42.45 35.8C44 35.75 45.5 35.75 47 35.75C51.1 35.75 54.5 36.25 57.3 37.3C59.8 38.15 62.1 39.55 64 41.4C65.6 43 66.85 44.95 67.65 47.1C68.4 49.2 68.8 51.35 68.8 53.6C68.8 57.9 67.8 61.45 65.8 64.25C63.8 67.05 61 69.15 57.75 70.35C54.35 71.6 50.6 72.05 46.5 72.05C45.3 72.05 44.5 72.05 44 72C43.5 71.95 42.8 71.95 41.85 71.95V88C41.9 88.35 41.65 88.65 41.3 88.7H41.1H31.6C31.2 88.7 31 88.5 31 88.05ZM41.9 45.7V62.5L42.05 62.5107C42.6931 62.5569 43.2931 62.6 43.85 62.6H46.5C48.45 62.6 50.4 62.3 52.25 61.7C53.85 61.25 55.25 60.3 56.35 59.05C57.4 57.8 57.9 56.1 57.9 53.9C57.95 52.35 57.55 50.8 56.75 49.45C55.9 48.15 54.7 47.15 53.25 46.6C51.4 45.85 49.4 45.55 47.35 45.6C46.05 45.6 44.9 45.6 43.95 45.65C42.95 45.6 42.25 45.65 41.9 45.7ZM95.2 57.7499C96.9 58.0999 98.5 58.6499 100 59.4499C100.2 59.5499 100.45 59.5499 100.9 59.4499C101.05 59.3499 101.15 59.1499 101.15 58.9499V50.7999C101.15 50.5999 101.1 50.3999 101.05 50.1999C100.95 49.9999 100.75 49.7999 100.55 49.7499C99.2001 49.1999 97.75 48.7999 96.25 48.5999C94.2 48.2999 92.1001 48.1499 90.05 48.1499C86.5 48.1499 83.55 48.6999 81.2 49.8999C79.05 50.8999 77.2 52.4999 75.95 54.4999C74.85 56.3499 74.25 58.3999 74.25 60.5499C74.2 62.2999 74.6 64.0499 75.4 65.6499C76.35 67.3499 77.65 68.7999 79.2 69.8999C81.4 71.3999 83.75 72.5999 86.3 73.4999C88.75 74.4499 90.4 75.1999 91.2 75.8499C92 76.4999 92.4 77.1499 92.4 77.8499C92.4 78.7499 91.8501 79.5999 91.05 79.9499C90.15 80.3999 88.8 80.6499 86.9 80.6499C84.9 80.6499 82.9 80.3999 81 79.8999C78.8 79.3999 76.75 78.5999 74.8 77.4499C74.65 77.3499 74.5 77.2999 74.35 77.3999C74.2 77.4999 74.15 77.6999 74.15 77.8499V86.5499C74.1 86.9499 74.35 87.2999 74.7 87.4999C76.3 88.2499 78.05 88.7999 79.8 89.0999C82.05 89.5499 84.3 89.7499 86.6 89.7499C90.2 89.7499 93.2001 89.1999 95.65 88.1499C97.9 87.2499 99.85 85.6999 101.25 83.6999C102.55 81.7499 103.25 79.3999 103.2 77.0499C103.25 75.2499 102.85 73.4999 102.05 71.8999C101.1 70.1999 99.75 68.7999 98.1 67.7499C95.7 66.2499 93.1 64.9999 90.4 64.0999C89.2001 63.5999 88 63.0499 86.85 62.4499C86.2 62.0999 85.6 61.6499 85.15 61.0999C84.85 60.6999 84.65 60.2499 84.65 59.7999C84.65 59.3499 84.8 58.8499 85.05 58.4499C85.4 57.9499 85.95 57.5999 86.6 57.4499C87.55 57.1999 88.6 57.0499 89.6 57.0999C91.5 57.0999 93.35 57.3499 95.2 57.7499Z" fill="#888888"/>
</svg>
