<svg width="128" height="128" viewBox="0 0 128 128" fill="none" xmlns="http://www.w3.org/2000/svg">
<path fill-rule="evenodd" clip-rule="evenodd" d="M25.25 6H102.75C114.5 6 124 15.5 124 27.25V101.75C124 113.5 114.5 123 102.75 123H25.25C13.5 123 4 113.5 4 101.75V27.25C4 15.5 13.5 6 25.25 6ZM32.5 87.9499V36.4999C32.5 36.1499 32.65 35.9499 33 35.9499C33.85 35.9499 34.65 35.9499 35.8 35.8999C36.418 35.8742 37.0492 35.8617 37.7006 35.8488C38.314 35.8366 38.9452 35.8242 39.6 35.7999C40.2982 35.774 41.0232 35.7616 41.775 35.7486C42.4767 35.7365 43.2017 35.724 43.95 35.6999C45.5 35.6499 47 35.6499 48.5 35.6499C52.6 35.6499 56 36.1499 58.8 37.1999C61.3 38.0499 63.6 39.4499 65.5 41.2999C67.1 42.8999 68.35 44.8499 69.15 46.9999C69.9 49.0999 70.3 51.2499 70.3 53.4999C70.3 57.7999 69.3 61.3499 67.3 64.1499C65.3 66.9499 62.5 69.0499 59.25 70.2499C55.85 71.4999 52.1 71.9499 48 71.9499H47.9995C46.7998 71.9499 45.9999 71.9499 45.5 71.8999C45 71.8499 44.3 71.8499 43.35 71.8499V87.8999C43.4 88.2499 43.15 88.5499 42.8 88.5999H42.6H33.1C32.7 88.5999 32.5 88.3999 32.5 87.9499ZM43.4 45.6499V62.4499L43.55 62.4607C44.1931 62.5068 44.7931 62.5499 45.35 62.5499H48C49.95 62.5499 51.9 62.2499 53.75 61.6499C55.35 61.1999 56.75 60.2499 57.85 58.9999C58.9 57.7499 59.4 56.0499 59.4 53.8499C59.45 52.2999 59.05 50.7499 58.25 49.3999C57.4 48.0999 56.2 47.0999 54.75 46.5499C52.9 45.7999 50.9 45.4999 48.85 45.5499H48.8497C47.5498 45.5499 46.3999 45.5499 45.45 45.5999C44.45 45.5499 43.75 45.5999 43.4 45.6499ZM86.2501 48.6H77.5001C77.4501 48.55 77.3501 48.55 77.3501 48.6C77.1001 48.65 76.9501 48.9 77.0001 49.15L77.0121 49.288C77.1079 50.3883 77.2001 51.4461 77.2001 52.55C77.2251 53.2 77.2375 53.8499 77.2501 54.4999C77.2626 55.1499 77.2751 55.8 77.3001 56.45C77.3501 57.75 77.3501 59 77.3501 60.2V87.9V88.1C77.4001 88.5 77.7501 88.75 78.1501 88.7H88.0001C88.4501 88.7 88.6501 88.5 88.6501 88V62.5C89.3501 61.7 90.2501 61.1 91.2001 60.65C92.5501 60.05 93.9501 59.6 95.4001 59.3C97.1501 58.9 99.0001 58.75 100.8 58.8C101.35 58.8 101.6 58.65 101.6 58.25V48.5V48.3C101.55 47.95 101.25 47.7 100.9 47.75C98.2501 47.75 95.6001 48.4 93.3001 49.7C91.2501 50.8 89.4501 52.25 87.9501 54C87.9501 53.35 87.9001 52.75 87.8501 52.2C87.8001 51.7 87.7001 51.15 87.6001 50.65C87.5501 50.2 87.4501 49.8 87.3001 49.4C87.1501 48.95 86.7501 48.6 86.2501 48.6Z" fill="#888888"/>
</svg>
