<svg width="128" height="128" viewBox="0 0 128 128" fill="none" xmlns="http://www.w3.org/2000/svg">
<path d="M30.129 13.5681L63.879 10L97.629 13.5681L123.758 48.644L63.879 118.372L4 48.644L30.129 13.5681Z" fill="#858585"/>
<path d="M28.254 48.644L63.879 118.372L4 48.644H28.254Z" fill="#777777"/>
<path d="M99.504 48.644L63.879 118.372L123.758 48.644H99.504Z" fill="#777777"/>
<path d="M28.254 48.644H99.504L63.879 118.372L28.254 48.644Z" fill="#808080"/>
<path d="M63.879 10L30.129 13.5681L28.254 48.644L63.879 10Z" fill="#888888"/>
<path d="M63.879 10L97.629 13.5681L99.504 48.644L63.879 10Z" fill="#888888"/>
<path d="M123.758 48.644L97.629 13.5681L99.504 48.644H123.758ZM4 48.644L30.129 13.5681L28.254 48.644H4Z" fill="#808080"/>
<path d="M63.879 10L28.254 48.644H99.504L63.879 10Z" fill="#999999"/>
</svg>
