<svg width="128" height="128" viewBox="0 0 128 128" fill="none" xmlns="http://www.w3.org/2000/svg">
<path fill-rule="evenodd" clip-rule="evenodd" d="M25.25 6H102.75C114.5 6 124 15.5 124 27.25V101.75C124 113.5 114.5 123 102.75 123H25.25C13.5 123 4 113.5 4 101.75V27.25C4 15.5 13.5 6 25.25 6ZM67.0997 36.7495L52.0997 61.4995L68.0997 87.7495C68.1997 87.9495 68.2497 88.1495 68.1997 88.3495C68.169 88.4723 68.0818 88.4632 67.9497 88.4494C67.8666 88.4407 67.7656 88.4302 67.6497 88.4495H56.1997C55.3997 88.4495 54.8497 88.3995 54.4997 87.8995C53.9747 86.8495 53.4372 85.812 52.8997 84.7745C52.3622 83.737 51.8247 82.6995 51.2997 81.6495C50.2497 79.5995 49.0997 77.4995 47.8997 75.3495C46.6997 73.1995 45.4997 71.0495 44.2997 68.8495H44.1997C43.1497 70.9995 41.9997 73.1495 40.8497 75.2995L40.8497 75.2996L40.8496 75.2997C39.6997 77.4496 38.5497 79.5996 37.4497 81.6995C37.0663 82.3996 36.683 83.1052 36.2996 83.8108L36.2992 83.8115C35.5327 85.2223 34.7662 86.6331 33.9997 87.9995C33.7997 88.4995 33.3997 88.5495 32.8497 88.5495H21.8497C21.801 88.5495 21.7552 88.5555 21.7139 88.5608C21.5855 88.5775 21.4997 88.5886 21.4997 88.3995C21.4497 88.1995 21.4997 87.9995 21.5997 87.8495L37.1497 62.3495L21.9997 36.6995C21.8497 36.4995 21.7997 36.2995 21.8997 36.1995C21.9997 36.0495 22.1997 35.9995 22.3997 35.9995H33.7497C33.9997 35.9995 34.2497 36.0495 34.4497 36.0995C34.6497 36.1995 34.7997 36.3495 34.9497 36.5495C35.8997 38.6995 36.9997 40.8495 38.1497 42.9995C38.3676 43.3899 38.5839 43.7787 38.7994 44.1661C39.7707 45.9122 40.7267 47.6308 41.7497 49.3495C42.9497 51.4495 44.0497 53.5495 45.0997 55.6995H45.1997C46.2497 53.4995 47.3497 51.3495 48.4497 49.2495C49.5497 47.1495 50.6997 45.0495 51.8497 42.9495C52.5304 41.7065 53.1936 40.4459 53.8496 39.199L53.85 39.1984C54.3022 38.3389 54.7509 37.4859 55.1997 36.6495C55.2497 36.4495 55.3497 36.2495 55.4997 36.1495C55.6997 36.0495 55.8997 35.9995 56.1497 36.0495H66.6997C66.9497 35.9995 67.1997 36.1495 67.2497 36.3995C67.2997 36.4495 67.1997 36.6495 67.0997 36.7495ZM79.4497 87.2496C82.7997 88.7996 86.4997 89.5496 90.1997 89.4996C92.7997 89.4996 95.3497 89.2496 97.8997 88.7996C100.7 88.2996 103.45 87.4996 106.05 86.3996C106.4 86.2496 106.55 85.9496 106.55 85.5996C106.542 85.4686 106.534 85.334 106.526 85.1962C106.483 84.4401 106.434 83.5877 106.35 82.6996C106.345 82.5989 106.341 82.4991 106.336 82.4C106.291 81.4174 106.25 80.5172 106.25 79.6996V32.0996V31.9996C106.2 31.7996 106 31.5996 105.75 31.6496H95.5997C95.2497 31.6496 95.0997 31.8496 95.0997 32.1996V47.9996C94.8221 47.9765 94.5658 47.964 94.3261 47.9524C94.0477 47.9389 93.7915 47.9265 93.5497 47.8996C93.0997 47.8496 92.7497 47.8496 92.4997 47.8496C87.5497 47.8496 83.3497 48.7996 79.8497 50.7496C76.5497 52.5496 73.7997 55.2496 71.8997 58.4996C70.0497 61.6996 69.0997 65.3496 69.1497 69.0496C69.1497 73.5996 70.0497 77.3996 71.8997 80.4496C73.6997 83.3996 76.2997 85.7996 79.4497 87.2496ZM95.0997 57.4996V79.4996C94.4997 79.6996 93.9497 79.7996 93.2997 79.7496C92.6497 79.7996 91.9497 79.8496 91.1997 79.8496C89.7997 79.8496 88.3997 79.6496 87.0497 79.1996C85.7497 78.7996 84.5997 78.0996 83.6497 77.1996C82.6497 76.1996 81.8997 74.9996 81.3997 73.6496C80.7997 71.9996 80.4997 70.2496 80.5497 68.4996C80.5497 65.8996 81.0997 63.7496 82.1997 62.1496C83.2997 60.5496 84.7497 59.2996 86.4497 58.4496C88.1997 57.5496 90.1497 57.1496 92.0997 57.1496C92.6497 57.1496 93.1997 57.1996 93.7497 57.2496C94.1997 57.2996 94.6497 57.3996 95.0997 57.4996Z" fill="#888888"/>
</svg>
