<svg width="128" height="128" viewBox="0 0 128 128" fill="none" xmlns="http://www.w3.org/2000/svg">
<g clip-path="url(#clip0_519_2)">
<path fill-rule="evenodd" clip-rule="evenodd" d="M64 128C99.3462 128 128 99.3462 128 64C128 28.6538 99.3462 0 64 0C28.6538 0 0 28.6538 0 64C0 99.3462 28.6538 128 64 128ZM50.251 35.845C37.2485 33.477 26.9675 35.9555 22.87 43.0525C19.8125 48.3485 20.6865 55.37 24.99 62.8755C25.075 63.0314 25.1902 63.1687 25.329 63.2795C25.4678 63.3902 25.6272 63.4721 25.7981 63.5204C25.9689 63.5687 26.1477 63.5824 26.3239 63.5607C26.5001 63.539 26.6702 63.4823 26.8242 63.394C26.9782 63.3057 27.1131 63.1875 27.2208 63.0463C27.3285 62.9052 27.407 62.744 27.4516 62.5722C27.4962 62.4003 27.506 62.2213 27.4805 62.0456C27.455 61.8699 27.3946 61.7011 27.303 61.549C23.427 54.788 22.6725 48.7285 25.1795 44.386C28.5835 38.4905 37.7535 36.2795 49.773 38.4685C50.1184 38.526 50.4725 38.4453 50.759 38.2439C51.0454 38.0426 51.2411 37.7366 51.3039 37.3921C51.3667 37.0476 51.2914 36.6923 51.0944 36.4028C50.8974 36.1134 50.5945 35.913 50.251 35.845ZM31.7515 71.9985C37.009 77.776 43.8395 83.1955 51.6295 87.6925C69.9285 98.2577 89.3744 101.312 99.5547 95.3235C100.602 96.0768 101.888 96.5205 103.277 96.5205C106.801 96.5205 109.658 93.6635 109.658 90.139C109.658 86.6145 106.801 83.7575 103.277 83.7575C99.752 83.7575 96.895 86.6145 96.895 90.139C96.895 91.2864 97.1978 92.3631 97.7279 93.2935C88.4191 98.3214 70.2328 95.3542 52.963 85.3835C45.406 81.0205 38.7915 75.7725 33.724 70.2035C33.6064 70.0732 33.4641 69.9674 33.3055 69.8922C33.1469 69.817 32.975 69.7739 32.7996 69.7653C32.6243 69.7566 32.4489 69.7828 32.2837 69.8421C32.1185 69.9014 31.9666 69.9927 31.8368 70.1109C31.7069 70.229 31.6017 70.3717 31.5271 70.5306C31.4525 70.6895 31.41 70.8616 31.4021 71.037C31.3942 71.2124 31.421 71.3876 31.4809 71.5526C31.5409 71.7176 31.6328 71.8691 31.7515 71.9985ZM101.855 93.5712C101.514 93.4299 101.196 93.2388 100.912 93.0046C100.889 92.9616 100.864 92.9199 100.837 92.8795C100.737 92.7332 100.609 92.6082 100.46 92.5119C100.433 92.4944 100.406 92.478 100.378 92.4625C100.159 92.1891 99.9789 91.8856 99.8443 91.5607C99.6576 91.1099 99.5615 90.6268 99.5615 90.139C99.5615 89.1537 99.9529 88.2088 100.65 87.5121C101.346 86.8154 102.291 86.424 103.277 86.424C104.262 86.424 105.207 86.8154 105.903 87.5121C106.6 88.2088 106.992 89.1537 106.992 90.139C106.992 90.6268 106.895 91.1099 106.709 91.5607C106.522 92.0114 106.248 92.4209 105.903 92.7659C105.558 93.1109 105.149 93.3845 104.698 93.5712C104.247 93.7579 103.764 93.854 103.277 93.854C102.789 93.854 102.306 93.7579 101.855 93.5712ZM104.708 43.1205C108.797 50.2025 105.824 60.3185 97.31 70.3765C97.1976 70.5124 97.0593 70.6246 96.9032 70.7067C96.7471 70.7888 96.5762 70.8391 96.4005 70.8547C96.2248 70.8703 96.0478 70.8509 95.8797 70.7976C95.7115 70.7443 95.5556 70.6582 95.421 70.5442C95.2864 70.4303 95.1757 70.2908 95.0954 70.1337C95.0151 69.9767 94.9667 69.8053 94.953 69.6294C94.9394 69.4536 94.9608 69.2768 95.016 69.1093C95.0712 68.9417 95.159 68.7868 95.2745 68.6535C103.144 59.3575 105.795 50.3365 102.398 44.454C99.933 40.1835 94.453 37.813 86.8505 37.714C86.5003 37.7044 86.1679 37.5574 85.9252 37.3047C85.6825 37.0521 85.549 36.714 85.5536 36.3637C85.5581 36.0134 85.7003 35.679 85.9495 35.4327C86.1986 35.1864 86.5347 35.048 86.885 35.0475C95.3385 35.1575 101.699 37.909 104.708 43.1205ZM51.6685 45.7065C59.5375 41.1635 67.7315 37.9385 75.4295 36.289C75.6019 36.2491 75.7805 36.2439 75.9549 36.2737C76.1294 36.3036 76.2961 36.3678 76.4454 36.4628C76.5948 36.5577 76.7237 36.6814 76.8248 36.8266C76.9259 36.9719 76.997 37.1358 77.034 37.3089C77.0711 37.4819 77.0734 37.6606 77.0407 37.8345C77.008 38.0084 76.941 38.1741 76.8436 38.3218C76.7463 38.4696 76.6205 38.5965 76.4736 38.6952C76.3267 38.7938 76.1616 38.8623 75.988 38.8965C68.5695 40.486 60.6355 43.6085 53.002 48.016C35.1606 58.3167 23.3631 73.1632 23.7722 83.775C23.9294 83.7634 24.0883 83.7575 24.2485 83.7575C27.773 83.7575 30.6305 86.6145 30.6305 90.139C30.6305 93.6635 27.7735 96.5205 24.2485 96.5205C20.7245 96.5205 17.867 93.6635 17.867 90.139C17.867 87.7397 19.1913 85.6497 21.1485 84.5598C20.1874 72.6325 32.7237 56.6442 51.6685 45.7065ZM43.885 93.8765C48.337 106.306 55.6195 113.96 63.8085 113.96C69.781 113.96 75.3065 109.888 79.6155 102.721C79.7088 102.571 79.7712 102.404 79.7993 102.229C79.8274 102.055 79.8205 101.876 79.779 101.704C79.7375 101.533 79.6623 101.371 79.5577 101.228C79.4532 101.086 79.3213 100.966 79.1698 100.875C79.0183 100.783 78.8503 100.723 78.6754 100.698C78.5005 100.672 78.3222 100.682 78.151 100.726C77.9799 100.77 77.8191 100.847 77.6782 100.954C77.5372 101.061 77.4189 101.194 77.33 101.347C73.4575 107.788 68.701 111.293 63.8085 111.293C57.006 111.293 50.5105 104.467 46.396 92.978C46.3396 92.8098 46.2503 92.6545 46.1332 92.5212C46.016 92.388 45.8735 92.2794 45.7139 92.2019C45.5543 92.1245 45.3809 92.0796 45.2037 92.07C45.0265 92.0604 44.8493 92.0863 44.6822 92.146C44.5152 92.2058 44.3617 92.2983 44.2309 92.4182C44.1001 92.538 43.9945 92.6827 43.9203 92.8439C43.8461 93.005 43.8048 93.1794 43.7988 93.3567C43.7928 93.534 43.8223 93.7107 43.8855 93.8765H43.885ZM84.546 91.445C86.851 84.081 88.0885 75.586 88.0885 66.7335C88.0885 45.2095 80.7478 26.5789 70.1842 21.1156C70.188 21.0244 70.19 20.9327 70.19 20.8405C70.19 17.316 67.333 14.459 63.8085 14.459C60.284 14.459 57.427 17.316 57.427 20.8405C57.427 24.365 60.284 27.222 63.8085 27.222C66.278 27.222 68.4199 25.8193 69.4808 23.7673C78.6848 29.0266 85.4215 46.4663 85.4215 66.7335C85.4215 75.322 84.223 83.5485 82.0015 90.6485C81.9463 90.8164 81.925 90.9935 81.9389 91.1697C81.9528 91.3459 82.0016 91.5176 82.0824 91.6747C82.1632 91.8319 82.2745 91.9714 82.4097 92.0852C82.5449 92.199 82.7014 92.2848 82.87 92.3375C83.0387 92.3903 83.2161 92.4091 83.3921 92.3927C83.5681 92.3763 83.739 92.325 83.895 92.242C84.051 92.1589 84.1889 92.0457 84.3008 91.9089C84.4126 91.7721 84.4961 91.6144 84.5465 91.445H84.546ZM24.2485 93.854C23.2632 93.854 22.3183 93.4626 21.6216 92.7659C20.9249 92.0692 20.5335 91.1243 20.5335 90.139C20.5335 89.1537 20.9249 88.2088 21.6216 87.5121C22.3183 86.8154 23.2632 86.424 24.2485 86.424C25.2338 86.424 26.1787 86.8154 26.8754 87.5121C27.5721 88.2088 27.9635 89.1537 27.9635 90.139C27.9635 91.1243 27.5721 92.0692 26.8754 92.7659C26.1787 93.4626 25.2338 93.854 24.2485 93.854ZM61.1816 23.4674C61.8783 24.1641 62.8232 24.5555 63.8085 24.5555C64.7938 24.5555 65.7387 24.1641 66.4354 23.4674C67.1321 22.7707 67.5235 21.8258 67.5235 20.8405C67.5235 19.8552 67.1321 18.9103 66.4354 18.2136C65.7387 17.5169 64.7938 17.1255 63.8085 17.1255C62.8232 17.1255 61.8783 17.5169 61.1816 18.2136C60.4849 18.9103 60.0935 19.8552 60.0935 20.8405C60.0935 21.8258 60.4849 22.7707 61.1816 23.4674ZM59.2955 67.7085C59.835 70.201 62.2905 71.785 64.783 71.2465C67.276 70.707 68.86 68.251 68.3215 65.7585C67.7815 63.266 65.326 61.682 62.8335 62.2205C61.6367 62.4793 60.5917 63.2028 59.9282 64.2319C59.2647 65.2611 59.0372 66.5116 59.2955 67.7085Z" fill="#888888"/>
</g>
<defs>
<clipPath id="clip0_519_2">
<rect width="128" height="128" fill="white"/>
</clipPath>
</defs>
</svg>
