<svg width="114" height="128" viewBox="0 0 114 128" fill="none" xmlns="http://www.w3.org/2000/svg">
<g clip-path="url(#clip0_519_26)">
<path d="M79.3255 46.4742C79.3255 53.1865 73.8844 58.6276 67.1721 58.6276C60.4608 58.6276 55.0197 53.1865 55.0197 46.4742C55.0197 39.7629 60.4608 34.3218 67.1726 34.3218C73.8844 34.3218 79.3255 39.7624 79.3255 46.4742Z" fill="#888888"/>
<path d="M46.7328 69.1229C40.021 69.1229 34.5799 74.5639 34.5799 81.2758C34.5799 87.9877 40.021 93.4287 46.7328 93.4287C53.4447 93.4287 58.8857 87.9877 58.8857 81.2758C58.8857 74.5639 53.4447 69.1229 46.7328 69.1229Z" fill="#888888"/>
<path d="M92.3615 85.419C87.4775 88.5764 82.0435 90.7875 76.3425 91.9372C77.9947 87.2266 78.5428 82.1994 77.9445 77.2434C91.2109 72.6052 100.01 59.9859 99.7762 45.9343C99.5415 31.8822 90.3264 19.5627 76.9125 15.3702C63.4986 11.1772 48.9075 16.0549 40.7124 27.4722C34.529 28.1678 28.5119 29.9242 22.9253 32.6644C28.9949 13.0817 47.1966 -0.197095 67.6978 0.00221337C88.1991 0.201521 106.139 13.8315 111.827 33.5289C117.515 53.2263 109.601 74.3219 92.3615 85.4185V85.419ZM23.478 41.1159L34.8576 42.4969C35.1158 40.2993 35.597 38.1337 36.294 36.0336C31.7928 37.08 27.4731 38.793 23.478 41.1159Z" fill="#888888"/>
<path d="M21.489 42.3319C26.4025 39.1421 31.8757 36.9117 37.6192 35.7583C35.8818 40.4681 35.2579 45.516 35.7962 50.5071C22.5767 55.2103 13.8506 67.846 14.1354 81.8746C14.4197 95.9028 23.6508 108.174 37.0505 112.338C50.4497 116.501 65.0098 111.62 73.1934 100.223C79.3735 99.5449 85.3905 97.8069 90.9806 95.0856C84.8968 114.648 66.704 127.905 46.2186 127.703C25.7333 127.503 7.80403 113.892 2.10427 94.2144C-3.59594 74.5374 4.28337 53.4506 21.4894 42.3319H21.489Z" fill="#888888"/>
</g>
<defs>
<clipPath id="clip0_519_26">
<rect width="113.92" height="128" fill="white"/>
</clipPath>
</defs>
</svg>
