<svg width="106" height="128" viewBox="0 0 106 128" fill="none" xmlns="http://www.w3.org/2000/svg">
<path d="M101.718 95.4229L60.4503 7.78538C59.4057 5.58812 57.2405 4.14044 54.8108 4.0147C52.3755 3.85153 50.0516 5.05628 48.7813 7.14044L4.02217 79.6352C2.63264 81.87 2.66188 84.707 4.09716 86.9126L25.9803 120.801C27.6806 123.413 30.8969 124.596 33.8846 123.707L97.3892 104.923C99.3238 104.357 100.918 102.981 101.76 101.149C102.59 99.3268 102.576 97.231 101.721 95.4199L101.718 95.4229ZM92.4786 99.1816L38.5912 115.116C36.9474 115.605 35.3695 114.18 35.7115 112.521L54.9638 20.3363C55.3238 18.6115 57.7056 18.3385 58.4585 19.9343L94.0985 95.6179C94.4174 96.3004 94.4212 97.0884 94.109 97.774C93.7968 98.4596 93.1998 98.974 92.4756 99.1816H92.4786Z" fill="#888888"/>
</svg>
