<svg width="128" height="128" viewBox="0 0 128 128" fill="none" xmlns="http://www.w3.org/2000/svg">
<mask id="mask0_7_11" style="mask-type:luminance" maskUnits="userSpaceOnUse" x="4" y="4" width="120" height="120">
<path d="M124 4H4V124H124V4Z" fill="white"/>
</mask>
<g mask="url(#mask0_7_11)">
<path d="M116.5 4H11.5C7.35786 4 4 7.35786 4 11.5V116.5C4 120.642 7.35786 124 11.5 124H116.5C120.642 124 124 120.642 124 116.5V11.5C124 7.35786 120.642 4 116.5 4Z" fill="#888888"/>
<path d="M40.959 35.0902C40.959 45.4013 47.4402 51.5364 60.4157 54.7715L74.1652 57.9035C86.4454 60.6747 93.9236 67.5574 93.9236 78.7707C94.0192 83.6558 92.4025 88.4247 89.3449 92.2782C89.3449 81.0906 83.4541 75.0458 69.2453 71.4111L55.7451 68.3951C44.9344 65.972 36.5901 60.3138 36.5901 48.1338C36.5332 43.4302 38.0702 38.8416 40.959 35.0902Z" fill="#666666"/>
<path d="M80.8957 76.0253C86.7602 79.7116 89.3318 84.8671 89.3318 92.2653C84.4774 98.3744 75.9495 101.803 65.9261 101.803C49.054 101.803 37.2462 93.6444 34.6222 79.4667H50.8251C52.9112 85.9756 58.4346 88.9916 65.8079 88.9916C74.8081 88.9916 80.7908 84.2742 80.9088 75.9995" fill="#777777"/>
<path d="M49.3819 50.3764C46.7039 48.8129 44.5068 46.5662 43.0239 43.8749C41.5409 41.1835 40.8273 38.1479 40.959 35.0902C45.6428 29.0325 53.7901 25.3334 63.7218 25.3334C80.9088 25.3334 90.8536 34.2525 93.307 46.8063H77.7207C76.0019 41.8569 71.6987 38.0031 63.8531 38.0031C55.4695 38.0031 49.7492 42.7978 49.4213 50.3764" fill="#777777"/>
</g>
</svg>
