<svg width="128" height="128" viewBox="0 0 128 128" fill="none" xmlns="http://www.w3.org/2000/svg">
<path d="M88.8438 4H39.1562C19.74 4 4 19.74 4 39.1562V88.8438C4 108.26 19.74 124 39.1562 124H88.8438C108.26 124 124 108.26 124 88.8438V39.1562C124 19.74 108.26 4 88.8438 4Z" fill="#888888"/>
<path fill-rule="evenodd" clip-rule="evenodd" d="M63.8701 21.5781L80.5288 31.1894V36.4741L100.692 48.1183V68.0369L106.101 71.1592V90.3925L89.4531 100.004L82.0621 95.7292L64.0918 106.105L46.2292 95.7892L38.9418 100.004L22.2938 90.3761V71.1592L27.4916 68.1585V48.1183L47.2222 36.7277L47.2332 36.7272V31.1894L63.8701 21.5781ZM80.5288 41.4716V50.4116L63.8809 60.0229L47.2332 50.4116V41.7194L47.2222 41.7198L31.8184 50.6172V65.6603L38.9418 61.548L55.5894 71.1592V90.3761L50.5529 93.2887L64.0918 101.107L77.7386 93.2294L72.8052 90.3761V71.1592L89.4531 61.548L96.3653 65.5387V50.6172L80.5288 41.4716ZM77.1322 87.899V76.1676L87.2896 82.0307V93.7621L77.1322 87.899ZM101.774 76.1514L91.6166 82.0145V93.7621L101.774 87.8828V76.1514ZM26.6208 87.8828V76.1514L36.7782 82.0145V93.7457L26.6208 87.8828ZM51.2626 76.1514L41.105 82.0145V93.7457L51.2626 87.8828V76.1514ZM79.2957 72.4195L89.4531 66.5566L99.6104 72.4195L89.4531 78.288L79.2957 72.4195ZM38.9418 66.5402L28.7842 72.4195L38.9418 78.2716L49.0991 72.4195L38.9418 66.5402ZM51.56 47.913V36.1816L61.7066 42.0498V53.7759L51.56 47.913ZM76.191 36.1816L66.0444 42.0498V53.7705L76.191 47.913V36.1816ZM53.7236 32.4386L63.8701 26.5757L74.0277 32.4386L63.8701 38.3017L53.7236 32.4386Z" fill="#666666"/>
</svg>
