<svg width="500" height="500" viewBox="0 0 500 500" fill="none"
  xmlns="http://www.w3.org/2000/svg">
  <path d="M108.337 261.625H85.0459V303.959H63V196H115.954C123.522 196.146 129.333 197.074 133.386 198.783C137.487 200.492 140.954 203.007 143.786 206.327C146.13 209.062 147.985 212.089 149.353 215.409C150.72 218.729 151.403 222.514 151.403 226.762C151.403 231.889 150.109 236.942 147.521 241.923C144.934 246.854 140.661 250.346 134.704 252.396C139.685 254.398 143.2 257.255 145.251 260.966C147.351 264.628 148.4 270.243 148.4 277.812V285.062C148.4 289.994 148.596 293.339 148.986 295.097C149.572 297.88 150.939 299.931 153.088 301.249V303.959H128.259C127.575 301.566 127.087 299.638 126.794 298.173C126.208 295.146 125.891 292.045 125.842 288.871L125.695 278.837C125.598 271.952 124.328 267.362 121.887 265.067C119.494 262.772 114.978 261.625 108.337 261.625ZM122.033 241.996C126.525 239.945 128.771 235.893 128.771 229.838C128.771 223.295 126.599 218.9 122.253 216.654C119.812 215.385 116.149 214.75 111.267 214.75H85.0459V243.754H110.607C115.686 243.754 119.494 243.168 122.033 241.996Z" fill="#111111"/>
  <path d="M198.645 282.133V303.959H176.452V282.133H198.645ZM176.452 249.101V227.274H198.645V249.101H176.452Z" fill="#111111"/>
  <path d="M241.491 303.959H220.471V196H253.283L272.912 280.888L292.395 196H324.841V303.959H303.82V230.937C303.82 228.837 303.845 225.907 303.894 222.147C303.942 218.339 303.967 215.409 303.967 213.358L283.532 303.959H261.633L241.345 213.358C241.345 215.409 241.369 218.339 241.418 222.147C241.467 225.907 241.491 228.837 241.491 230.937V303.959Z" fill="#111111"/>
  <path d="M392.297 303.959H345.788V196H392.297C398.986 196.098 404.553 196.879 408.996 198.344C416.564 200.834 422.692 205.399 427.38 212.04C431.14 217.411 433.703 223.222 435.07 229.472C436.438 235.722 437.121 241.679 437.121 247.343C437.121 261.698 434.24 273.856 428.479 283.817C420.666 297.245 408.605 303.959 392.297 303.959ZM409.069 223.539C405.603 217.68 398.742 214.75 388.488 214.75H367.688V285.209H388.488C399.133 285.209 406.555 279.96 410.754 269.462C413.049 263.7 414.196 256.84 414.196 248.881C414.196 237.895 412.487 229.447 409.069 223.539Z" fill="#111111"/>

  <style>
    @media (prefers-color-scheme:dark){:root{filter:invert(100%)}}
  </style>
</svg>