<svg width="128" height="128" viewBox="0 0 128 128" fill="none" xmlns="http://www.w3.org/2000/svg">
<path d="M103.831 78.5246L65.8574 14.0552C65.6736 13.7368 65.4072 13.4717 65.0854 13.2864C64.7636 13.1012 64.3976 13.0024 64.0245 13C63.6513 12.9977 63.2841 13.0919 62.9599 13.2731C62.6357 13.4543 62.3662 13.7161 62.1782 14.0321L50.8056 33.3499C50.4332 33.9823 50.2371 34.6996 50.2371 35.4298C50.2371 36.1599 50.4332 36.8772 50.8056 37.5096L75.5666 79.5674C75.9393 80.2004 76.4757 80.7259 77.1216 81.091C77.7675 81.4562 78.5002 81.648 79.2456 81.6472H101.991C102.363 81.6462 102.729 81.5493 103.051 81.3664C103.373 81.1834 103.641 80.9208 103.827 80.6047C104.014 80.2886 104.112 79.9301 104.112 79.5651C104.112 79.2001 104.016 78.8413 103.831 78.5246Z" fill="#888888"/>
<path d="M4.29281 112.219L42.266 47.7495C42.4523 47.4337 42.7202 47.1715 43.0425 46.9892C43.3649 46.8069 43.7305 46.7109 44.1026 46.7109C44.4748 46.7109 44.8405 46.8069 45.1629 46.9892C45.4853 47.1715 45.753 47.4337 45.9393 47.7495L57.3178 67.05C57.6902 67.6834 57.8861 68.4016 57.8861 69.1327C57.8861 69.8638 57.6902 70.582 57.3178 71.2154L32.5567 113.274C32.1853 113.906 31.6501 114.432 31.0051 114.797C30.3602 115.162 29.6282 115.354 28.8834 115.353H6.13241C5.75763 115.355 5.38905 115.259 5.06414 115.076C4.73922 114.893 4.46961 114.629 4.2827 114.311C4.09578 113.992 3.99824 113.631 4.00002 113.264C4.00181 112.896 4.10282 112.536 4.29281 112.219Z" fill="#888888"/>
<path d="M45.9338 115.339H121.88C122.253 115.339 122.619 115.242 122.941 115.06C123.264 114.877 123.531 114.613 123.717 114.297C123.903 113.981 124.001 113.622 124 113.257C123.999 112.891 123.901 112.532 123.714 112.217L112.353 92.9047C111.98 92.2715 111.444 91.7464 110.798 91.3814C110.152 91.0158 109.419 90.8245 108.674 90.8252H59.1519C58.4063 90.8245 57.6737 91.0158 57.0278 91.3814C56.3819 91.7464 55.8455 92.2715 55.4727 92.9047L44.1002 112.217C43.9134 112.532 43.8148 112.891 43.8142 113.257C43.8137 113.622 43.9112 113.981 44.0971 114.297C44.2829 114.613 44.5506 114.877 44.873 115.06C45.1955 115.242 45.5613 115.339 45.9338 115.339Z" fill="#888888"/>
</svg>
