<svg width="128" height="128" viewBox="0 0 128 128" fill="none" xmlns="http://www.w3.org/2000/svg">
<path d="M63.9999 123.17C96.6785 123.17 123.17 96.6785 123.17 63.9999C123.17 31.3213 96.6785 4.83008 63.9999 4.83008C31.3213 4.83008 4.83008 31.3213 4.83008 63.9999C4.83008 96.6785 31.3213 123.17 63.9999 123.17Z" stroke="#888888" stroke-width="2.5"/>
<path d="M75.2705 85.3335C74.868 84.9309 74.8679 84.1259 74.4654 83.3209C74.4654 82.5158 74.0629 81.7108 74.0629 80.9058C73.2579 81.7108 72.4529 82.1133 71.6478 82.9184C70.8428 83.7234 69.6352 84.1259 68.8302 84.5284C67.6227 84.9309 66.8176 85.3335 65.2076 85.736C64 86.1385 62.39 86.1385 61.1824 86.1385C58.7673 86.1385 56.7547 85.736 54.7422 84.9309C52.7296 84.1259 51.1195 83.3209 49.5095 82.1133C47.8994 80.9058 47.0944 79.2957 46.2893 77.6857C45.4843 76.0756 45.0818 74.063 45.0818 72.0504C45.0818 67.2202 47.0944 63.1951 50.717 60.78C54.3397 57.9624 59.9749 56.7548 67.2202 56.7548H74.0629V53.9372C74.0629 51.5221 73.2579 49.9121 72.0503 48.7045C70.4403 47.497 68.4277 46.6919 65.6101 46.6919C63.195 46.6919 61.5849 47.0945 60.3774 48.302C59.1698 49.5096 58.7673 50.7171 58.7673 52.3272H46.6919C46.6919 50.3146 47.0944 48.302 47.8994 46.6919C48.7044 45.0819 49.912 43.4718 51.9246 41.8618C53.5346 40.6542 55.5472 39.4467 57.9623 38.6416C60.3774 37.8366 63.195 37.4341 66.4151 37.4341C69.2327 37.4341 71.6478 37.8366 74.0629 38.6416C76.478 39.4467 78.4906 40.2517 80.5032 41.8618C82.1132 43.0693 83.7233 45.0819 84.5283 47.0945C85.3334 49.107 86.1384 51.5221 86.1384 54.3397V74.4655C86.1384 76.8806 86.1384 78.8932 86.5409 80.5033C86.9434 82.1133 87.3459 83.7234 87.7484 84.5284V85.3335H75.2705ZM63.5975 76.8806C64.8051 76.8806 66.0126 76.8806 66.8176 76.4781C68.0252 76.0756 68.8302 75.6731 69.6352 75.2706C70.4403 74.868 71.2453 74.4655 71.6478 73.6605C72.0503 73.258 72.8554 72.4529 73.2579 72.0504V64.0001H67.2202C65.2076 64.0001 63.5975 64.0001 62.39 64.4026C61.1824 64.8052 59.9749 65.2077 59.1698 66.0127C58.3648 66.8177 57.5598 67.2202 57.1573 68.4278C56.7547 69.2328 56.7547 70.4404 56.7547 71.2454C56.7547 72.8555 57.1573 74.063 58.3648 75.2706C59.5724 76.4781 61.5849 76.8806 63.5975 76.8806Z" fill="#888888"/>
</svg>
