<svg width="204" height="128" viewBox="0 0 204 128" fill="none" xmlns="http://www.w3.org/2000/svg">
<path d="M197.393 107.183C97.8538 120.192 26.8074 135.817 25.7566 71.6832C25.7566 71.6832 27.9282 46.8339 58.4075 45.2691C58.4075 45.2691 59.4346 23.1984 82.7198 20.6995C95.2382 19.3444 109.461 32.2368 111.003 45.8061C111.003 45.8061 141.808 40.1077 143.139 70.1422C143.606 80.6049 141.247 98.4014 111.54 97.6302C111.54 97.6302 94.3509 95.2949 92.0149 68.7172C87.1807 120.168 161.566 117.179 162.641 70.4456C163.108 50.2431 150.169 29.4575 121.022 33.3576C105.047 -6.83616 62.5173 -4.52392 46.6827 32.7507C24.0512 32.7507 6.7455 50.1732 7.00283 72.9215C7.86704 146.14 109.765 124.069 197.393 107.183Z" fill="#888888"/>
</svg>
