<svg width="185" height="128" viewBox="0 0 185 128" fill="none" xmlns="http://www.w3.org/2000/svg">
<path d="M47.5976 93.5126C47.5324 91.5775 47.4977 89.6415 47.4935 87.7053C47.5178 58.4918 54.4081 32.2913 65.7589 13.9946C50.4243 19.4433 37.1389 29.4807 27.7077 42.743C18.3238 55.9459 13.2775 71.7399 13.2676 87.9379V98.4417C24.5409 95.7772 36.0301 94.1276 47.5976 93.5126Z" fill="#888888"/>
<path d="M171.891 87.9375C171.906 69.6725 165.498 51.9837 153.789 37.9663C158.87 54.048 161.402 70.8261 161.293 87.6911C161.293 90.5374 161.217 93.3491 161.085 96.1434C164.68 96.6964 168.243 97.4473 171.755 98.3927L171.891 87.9375Z" fill="#888888"/>
<path d="M171.026 109.07C163.83 107.335 156.517 106.12 149.147 105.44C147.082 105.211 144.991 105.421 143.012 106.056C141.033 106.692 139.211 107.738 137.665 109.126C131.95 114.299 124.515 117.161 116.806 117.155H68.3554C60.6513 117.158 53.221 114.298 47.5075 109.129C45.9639 107.735 44.1428 106.683 42.1638 106.042C40.1848 105.402 38.0927 105.187 36.0248 105.412C28.652 106.092 21.3417 107.307 14.1459 109.039C11.329 109.655 8.67288 110.855 6.34961 112.562C10.0291 118.144 47.2471 124 92.5947 124C137.946 124 175.146 118.123 178.833 112.566C178.704 112.455 178.562 112.347 178.455 112.226C176.234 110.653 173.7 109.577 171.026 109.07Z" fill="#888888"/>
<path fill-rule="evenodd" clip-rule="evenodd" d="M179.128 102.795V111.199C179.186 111.689 179.068 112.183 178.795 112.594C178.738 112.531 178.667 112.471 178.595 112.409C178.535 112.357 178.475 112.305 178.42 112.25C176.225 110.643 173.699 109.546 171.026 109.04C163.834 107.311 156.52 106.103 149.151 105.423C147.083 105.197 144.992 105.412 143.013 106.051C141.034 106.691 139.213 107.741 137.668 109.133C131.955 114.307 124.521 117.17 116.813 117.166H68.3416C60.634 117.171 53.1998 114.31 47.4832 109.14C45.9359 107.755 44.1135 106.712 42.1354 106.08C40.1572 105.448 38.0679 105.24 36.004 105.471C28.6312 106.152 21.3174 107.366 14.1251 109.102C11.3045 109.709 8.64558 110.91 6.32538 112.625C6.05561 112.206 5.94823 111.702 6.02339 111.209V102.805C6.02339 101.254 8.61637 99.7819 13.2678 98.442V87.9382C13.2745 71.7371 18.3197 55.9391 27.7044 42.7329C37.1351 29.4693 50.4206 19.4307 65.7556 13.9811L66.0784 12.0268C66.252 10.9021 66.7483 9.85383 67.5016 8.99991C68.2583 8.14253 69.2407 7.51772 70.341 7.1949C84.9927 2.93503 100.554 2.93503 115.206 7.1949C116.301 7.51944 117.281 8.1463 118.035 9.00339C118.785 9.85717 119.277 10.9072 119.451 12.0303L119.788 14.1269C135.03 19.6289 148.219 29.6724 157.575 42.903C166.899 56.1074 171.898 71.8284 171.898 87.9417L171.783 98.4004C176.5 99.7437 179.128 101.233 179.128 102.795ZM74.0134 59.988L92.5704 28.671V71.4082L74.0134 59.988ZM92.5774 28.6812V71.3976L111.131 59.9982L92.5774 28.6812ZM92.5775 92.4954V92.5059L74.0205 66.1943L92.5774 77.6076V77.6006L111.131 66.1734C111.131 66.1818 99.3138 82.9414 94.5389 89.7135L92.5775 92.4954Z" fill="#888888"/>
</svg>
