<svg width="128" height="128" viewBox="0 0 128 128" fill="none" xmlns="http://www.w3.org/2000/svg">
<path d="M63.96 4L12 34V94L63.96 124L115.92 94V34L63.96 4ZM58.595 11.225H58.6C60.1479 12.3676 62.0211 12.9841 63.945 12.9841C65.8689 12.9841 67.7421 12.3676 69.29 11.225L106.96 32.975C106.884 33.6445 106.884 34.3205 106.96 34.99L69.285 56.74C67.7376 55.5986 65.8653 54.9828 63.9425 54.9828C62.0197 54.9828 60.1474 55.5986 58.6 56.74L20.92 34.99C20.9953 34.3221 20.9953 33.6479 20.92 32.98L58.595 11.225ZM110.58 41C111.125 41.4 111.71 41.735 112.325 42.005V85.505C110.561 86.2743 109.09 87.5887 108.128 89.2553C107.166 90.9219 106.764 92.8529 106.98 94.765L69.305 116.515C68.7625 116.118 68.1772 115.782 67.56 115.515L67.515 72.25C69.2789 71.4818 70.7501 70.1685 71.713 68.5029C72.6758 66.8372 73.0796 64.9069 72.865 62.995L110.58 41ZM17.34 41.24L55.015 62.99C54.7989 64.9021 55.2014 66.8331 56.1634 68.4997C57.1254 70.1663 58.5962 71.4807 60.36 72.25V115.75C59.74 116.02 59.16 116.36 58.615 116.76L20.94 95.01C21.1561 93.0979 20.7536 91.1669 19.7916 89.5003C18.8296 87.8337 17.3588 86.5193 15.595 85.75V42.25C16.2135 41.9782 16.7953 41.6396 17.34 41.24Z" fill="#888888"/>
</svg>
