<svg width="130" height="128" viewBox="0 0 130 128" fill="none" xmlns="http://www.w3.org/2000/svg">
<path fill-rule="evenodd" clip-rule="evenodd" d="M64.604 124C95.7077 124 121.219 99.7762 123.711 68.9591C125.677 62.9234 126.026 56.309 124.727 50.2601V50.2483C121.418 34.6821 111.825 23.3182 98.7912 14.9659C89.129 8.05827 77.3349 4 64.604 4C49.3787 4 35.4935 9.80425 24.9922 19.3449C25.735 18.6613 26.4995 18.0008 27.2847 17.3638C13.011 28.3807 4.46509 45.2459 4.02249 63.2713C3.6759 76.4004 7.34733 87.4617 14.2438 97.5302C15.9254 99.7022 17.8301 101.689 19.9255 103.459C30.797 116.048 46.7825 124 64.604 124ZM19.9255 103.459C20.4984 103.943 21.0857 104.411 21.6865 104.861C28.2951 109.86 37.9583 114.483 45.9532 117.197V117.203C48.3793 118.031 56.5269 120.681 56.8735 118.09C57.0063 117.086 54.8988 116.064 51.5973 114.463L51.5972 114.463C50.2258 113.798 48.6485 113.033 46.9401 112.128C38.6604 107.752 31.086 102.156 24.4709 95.5271C14.8153 86.0595 9.26316 73.1791 9.00976 59.6587C8.54951 42.7281 14.6921 28.8231 24.9922 19.3449C12.9019 30.3292 5.29712 46.2661 5.29712 64C5.29712 79.1074 10.8161 92.9106 19.9255 103.459ZM121.847 48.2533C123.031 57.9488 119.606 67.9761 111.146 73.6277C103.327 78.8382 93.388 79.4609 84.3181 78.1568C72.1583 76.3945 60.6976 70.5202 52.7321 61.0684C45.4597 52.4509 40.4959 40.0737 43.4859 28.7599C45.677 20.483 52.3972 14.3032 60.445 11.7244C70.6251 8.42893 81.8333 9.96212 90.9913 15.3136C95.585 17.9864 99.8027 21.6872 102.152 26.5394C103.215 28.7252 103.787 31.1172 103.827 33.5474C103.85 34.5317 103.773 35.5158 103.598 36.4845C103.533 36.837 102.787 37.8298 102.893 37.0132L102.852 37.0015C104.52 25.7933 94.3867 18.098 85.0289 14.6028C73.997 10.4908 59.4229 12.2883 51.3868 21.4229C45.5126 28.1313 45.8944 37.8709 48.9255 45.7542C53.5075 57.6614 63.8521 66.2672 75.8944 69.9856C84.4532 72.629 94.7978 73.7804 103.468 70.9901C116.116 66.9192 120.234 53.7315 117.619 41.648C117.06 39.0358 116.2 36.497 115.058 34.082C114.549 33.0131 113.705 31.5952 113.01 30.4269C111.773 28.349 111.007 27.061 113.43 29.9315C117.193 35.4412 120.068 41.619 121.847 48.2533ZM121.847 48.2533C123.193 53.2715 123.911 58.5509 123.911 64C123.911 65.6698 123.843 67.3237 123.711 68.9591C120.945 77.454 114.976 84.8026 105.889 87.8144C88.5477 93.5595 69.5973 87.2094 55.499 77.5755C42.088 68.4058 30.6977 53.0739 32.46 36.0384C34.2282 18.8973 48.303 8.38228 65.0799 7.20742C75.5714 6.45551 84.1303 9.55126 92.3543 13.957C103.298 19.796 111.992 34.0588 106.629 43.8806C96.29 62.8017 61.4496 47.6402 64.2164 28.0846C64.5454 25.7349 65.5146 23.2207 67.3827 21.6934C69.9145 19.6492 70.0026 22.4277 69.3799 24.2194C67.4238 29.8058 71.1128 35.216 75.4951 38.3647C81.4398 42.6294 94.657 44.5679 98.0523 35.8446C103.874 20.8475 70.8015 9.59826 60.404 19.6315C44.3672 35.1338 60.6272 50.9944 73.6212 58.0435C84.5767 63.9883 104.549 66.4379 112.773 53.9315C122.495 38.3177 106.047 20.6184 94.328 12.2946C95.8556 13.149 97.3446 14.0389 98.7912 14.9659C104.496 19.0441 109.457 24.1156 113.43 29.9315C113.919 30.5114 114.539 31.261 115.311 32.2081C116.018 33.1298 116.669 34.093 117.261 35.0923C118.652 37.3776 119.755 39.8262 120.545 42.3823C121.17 44.2985 121.605 46.269 121.847 48.2533Z" fill="#888888"/>
</svg>
