<svg width="544" height="128" viewBox="0 0 544 128" fill="none" xmlns="http://www.w3.org/2000/svg">
<g clip-path="url(#clip0_525_118)">
<path d="M544 11.6364C544 18.0629 538.79 23.2727 532.364 23.2727C525.937 23.2727 520.727 18.0629 520.727 11.6364C520.727 5.20978 525.937 0 532.364 0C538.79 0 544 5.20978 544 11.6364Z" fill="#888888"/>
<path d="M401.455 101.818C406.275 101.818 410.182 97.9113 410.182 93.0909V58.1818C410.182 53.3618 414.089 49.4545 418.909 49.4545H436.364C441.184 49.4545 445.091 53.3618 445.091 58.1818V93.0909C445.091 97.9113 448.998 101.818 453.818 101.818C458.639 101.818 462.545 97.9113 462.545 93.0909V58.1818C462.545 53.3618 466.452 49.4545 471.273 49.4545H488.727C493.548 49.4545 497.455 53.3618 497.455 58.1818V93.0909C497.455 97.9113 501.361 101.818 506.182 101.818H532.364C537.184 101.818 541.091 97.9113 541.091 93.0909V40.7273C541.091 35.9073 537.184 32 532.364 32C527.543 32 523.636 35.9073 523.636 40.7273V80C523.636 82.41 521.682 84.3636 519.273 84.3636C516.863 84.3636 514.909 82.41 514.909 80V40.7273C514.909 35.9073 511.002 32 506.182 32H401.455C396.634 32 392.727 35.9073 392.727 40.7273V93.0909C392.727 97.9113 396.634 101.818 401.455 101.818Z" fill="#888888"/>
<path fill-rule="evenodd" clip-rule="evenodd" d="M26.1818 84.3636C21.3618 84.3636 17.4545 80.4563 17.4545 75.6364V40.7273C17.4545 35.9073 13.5472 32 8.72727 32C3.90733 32 0 35.9073 0 40.7273V93.0909C0 97.9113 3.90733 101.818 8.72727 101.818H113.455C118.275 101.818 122.182 97.9113 122.182 93.0909V58.1818C122.182 53.3618 126.089 49.4545 130.909 49.4545H231.273C233.682 49.4545 235.636 51.4082 235.636 53.8182C235.636 56.2282 233.682 58.1818 231.273 58.1818H139.636C134.816 58.1818 130.909 62.0891 130.909 66.9091V93.0909C130.909 97.9113 134.816 101.818 139.636 101.818H244.364C249.184 101.818 253.091 97.9113 253.091 93.0909V40.7273C253.091 35.9073 249.184 32 244.364 32H113.455C108.634 32 104.727 35.9073 104.727 40.7273V75.6364C104.727 80.4563 100.82 84.3636 96 84.3636H78.5455C73.7255 84.3636 69.8182 80.4563 69.8182 75.6364V40.7273C69.8182 35.9073 65.9109 32 61.0909 32C56.2709 32 52.3636 35.9073 52.3636 40.7273V75.6364C52.3636 80.4563 48.4563 84.3636 43.6364 84.3636H26.1818ZM235.636 80C235.636 82.41 233.682 84.3636 231.273 84.3636H152.727C150.318 84.3636 148.364 82.41 148.364 80C148.364 77.59 150.318 75.6364 152.727 75.6364H231.273C233.682 75.6364 235.636 77.59 235.636 80Z" fill="#888888"/>
<path fill-rule="evenodd" clip-rule="evenodd" d="M261.818 93.0909C261.818 97.9113 265.725 101.818 270.545 101.818H362.182C364.591 101.818 366.545 103.772 366.545 106.182C366.545 108.592 364.591 110.545 362.182 110.545H270.545C265.725 110.545 261.818 114.452 261.818 119.273C261.818 124.093 265.725 128 270.545 128H375.273C380.093 128 384 124.093 384 119.273V40.7273C384 35.9073 380.093 32 375.273 32H270.545C265.725 32 261.818 35.9073 261.818 40.7273V93.0909ZM288 49.4545C283.18 49.4545 279.273 53.3618 279.273 58.1818V75.6364C279.273 80.4563 283.18 84.3636 288 84.3636H357.818C362.638 84.3636 366.545 80.4563 366.545 75.6364V58.1818C366.545 53.3618 362.638 49.4545 357.818 49.4545H288Z" fill="#888888"/>
</g>
<defs>
<clipPath id="clip0_525_118">
<rect width="544" height="128" fill="white"/>
</clipPath>
</defs>
</svg>
