<svg width="120" height="120" viewBox="0 0 120 120" fill="none"
    xmlns="http://www.w3.org/2000/svg">
    <g clip-path="url(#clip0_479_2)">
        <path d="M45.8516 64.7018C44.396 64.031 42.3498 63.6956 39.7243 63.665H26.5591V80.0198H39.5148C42.1783 80.0198 44.2398 79.6694 45.7297 78.9416C48.4084 77.6078 49.7574 75.0584 49.7574 71.2826C49.7574 68.093 48.458 65.8946 45.8516 64.7018Z" fill="#888888"/>
        <path d="M46.0193 51.9941C47.6769 50.9844 48.4999 49.1896 48.4999 46.6023C48.4999 43.7483 47.4101 41.8544 45.2115 40.9438C43.3215 40.315 40.9018 39.9873 37.9715 39.9873H26.5591V53.5184H39.5338C42.1974 53.5145 44.3579 53.0078 46.0193 51.9941Z" fill="#888888"/>
        <path d="M85.797 53.1211C82.8438 53.1211 80.5578 53.9746 78.9342 55.6398C77.307 57.3126 76.2936 59.576 75.8748 62.4414H95.67C95.445 59.3969 94.428 57.0802 92.5914 55.5064C90.7734 53.9175 88.506 53.1211 85.797 53.1211Z" fill="#888888"/>
        <path d="M0 0V120H120V0H0ZM73.3482 31.8786H98.0442V38.0135H73.3482V31.8786ZM59.9543 81.9408C58.7882 83.8536 57.3441 85.4616 55.6103 86.7648C53.6555 88.266 51.3464 89.295 48.6905 89.844C46.0269 90.4002 43.1386 90.6744 40.0369 90.6744H12.407V29.3408H42.0335C49.4945 29.4513 54.791 31.6156 57.9157 35.872C59.7943 38.4821 60.72 41.6029 60.72 45.2305C60.72 48.9915 59.779 51.9865 57.8813 54.2614C56.8335 55.5455 55.275 56.7039 53.2135 57.7518C56.3343 58.9026 58.7006 60.6894 60.282 63.174C61.875 65.6358 62.6712 68.6424 62.6712 72.1518C62.6748 75.7944 61.7832 79.0602 59.9543 81.9408ZM107.585 70.0254H75.5928C75.7716 74.442 77.292 77.5284 80.1882 79.3002C81.9294 80.409 84.0444 80.946 86.517 80.946C89.1348 80.946 91.2462 80.2872 92.892 78.9384C93.7836 78.222 94.5648 77.2044 95.247 75.924H106.972C106.667 78.534 105.257 81.171 102.716 83.865C98.7906 88.1364 93.2772 90.282 86.1972 90.282C80.3442 90.282 75.1926 88.4646 70.719 84.8712C66.2604 81.5328 64.0122 75.402 64.0122 67.2744C64.0122 59.657 66.0246 53.8194 70.0596 49.7574C74.1102 45.6954 79.338 43.6682 85.7778 43.6682C89.5998 43.6682 93.0372 44.3503 96.1122 45.7145C99.1716 47.0939 101.702 49.2582 103.687 52.2228C105.497 54.8406 106.648 57.8623 107.197 61.3182C107.509 63.3114 107.642 66.2226 107.585 70.0254Z" fill="#888888"/>
    </g>
    <defs>
        <clipPath id="clip0_479_2">
            <rect width="120" height="120" fill="white"/>
        </clipPath>
    </defs>
</svg>
