<svg width="173" height="128" viewBox="0 0 173 128" fill="none" xmlns="http://www.w3.org/2000/svg">
<mask id="mask0_479_18" style="mask-type:luminance" maskUnits="userSpaceOnUse" x="7" y="4" width="159" height="120">
<path d="M165.331 4H7V124H165.331V4Z" fill="white"/>
</mask>
<g mask="url(#mask0_479_18)">
<path d="M141.122 14.0498C130.719 9.28727 119.738 5.90856 108.457 4C106.913 6.7595 105.516 9.59867 104.273 12.5056C92.2564 10.6949 80.0368 10.6949 68.0212 12.5056C66.7764 9.59897 65.3798 6.75984 63.8367 4C52.5489 5.92468 41.5598 9.31141 31.1468 14.0747C10.4743 44.66 4.87037 74.4856 7.67236 103.888C19.7787 112.833 33.3291 119.635 47.7346 124C50.9783 119.637 53.8486 115.009 56.315 110.165C51.6305 108.415 47.109 106.256 42.8031 103.713C43.9364 102.891 45.0447 102.045 46.1157 101.223C58.6449 107.115 72.3202 110.17 86.1658 110.17C100.011 110.17 113.686 107.115 126.215 101.223C127.299 102.107 128.407 102.954 129.528 103.713C125.214 106.26 120.684 108.423 115.991 110.177C118.454 115.019 121.325 119.643 124.571 124C138.989 119.653 152.55 112.853 164.658 103.901C167.946 69.8032 159.042 40.2516 141.122 14.0498ZM59.8641 85.8058C52.0559 85.8058 45.6051 78.7198 45.6051 70.0024C45.6051 61.2852 51.8318 54.137 59.8392 54.137C67.8466 54.137 74.2474 61.2852 74.1106 70.0024C73.9738 78.7198 67.822 85.8058 59.8641 85.8058ZM112.467 85.8058C104.646 85.8058 98.2204 78.7198 98.2204 70.0024C98.2204 61.2852 104.447 54.137 112.467 54.137C120.487 54.137 126.838 61.2852 126.701 70.0024C126.564 78.7198 120.425 85.8058 112.467 85.8058Z" fill="#888888"/>
</g>
</svg>
