<svg width="131" height="128" viewBox="0 0 131 128" fill="none"
    xmlns="http://www.w3.org/2000/svg">
    <path fill-rule="evenodd" clip-rule="evenodd" d="M65.0496 5C31.8437 5 5 32.0416 5 65.4958C5 92.2376 22.1997 114.874 46.0603 122.886C49.0435 123.488 50.1362 121.584 50.1362 119.982C50.1362 118.58 50.0378 113.773 50.0378 108.764C33.3335 112.37 29.855 101.552 29.855 101.552C27.1705 94.541 23.1929 92.7391 23.1929 92.7391C17.7255 89.0331 23.5911 89.0331 23.5911 89.0331C29.6558 89.4338 32.8381 95.2429 32.8381 95.2429C38.2059 104.457 46.8555 101.853 50.3353 100.25C50.8319 96.3442 52.4237 93.64 54.1138 92.138C40.7908 90.7355 26.7734 85.5275 26.7734 62.2902C26.7734 55.6797 29.158 50.2714 32.9365 46.0652C32.3403 44.5631 30.252 38.3522 33.5338 30.0393C33.5338 30.0393 38.6042 28.4365 50.0366 36.2491C54.9313 34.9248 59.979 34.2512 65.0496 34.2455C70.12 34.2455 75.2886 34.9474 80.0614 36.2491C91.4951 28.4365 96.5655 30.0393 96.5655 30.0393C99.8473 38.3522 97.7577 44.5631 97.1616 46.0652C101.04 50.2714 103.326 55.6797 103.326 62.2902C103.326 85.5275 89.3085 90.6347 75.886 92.138C78.0739 94.0407 79.9619 97.6459 79.9619 103.355C79.9619 111.468 79.8635 117.979 79.8635 119.981C79.8635 121.584 80.9575 123.488 83.9395 122.887C107.8 114.873 125 92.2376 125 65.4958C125.098 32.0416 98.156 5 65.0496 5Z" fill="#888888"/>
</svg>
