<svg width="128" height="128" viewBox="0 0 128 128" fill="none" xmlns="http://www.w3.org/2000/svg">
<path d="M115.147 4.00045H12.8524C10.5314 3.97683 8.29584 4.87492 6.63623 6.49764C4.97662 8.12037 4.02854 10.3352 4 12.6561V115.364C4.0337 117.681 4.98405 119.891 6.6431 121.509C8.30214 123.128 10.5348 124.023 12.8524 124H115.147C117.468 124.018 119.702 123.117 121.361 121.493C123.019 119.869 123.968 117.655 123.999 115.334V12.6266C123.958 10.3125 123.005 8.10823 121.347 6.49295C119.689 4.87767 117.461 3.98194 115.147 4.00045ZM39.5768 106.295H21.7638V48.9804H39.5768V106.295ZM30.7244 41.1707C28.6813 41.1726 26.6836 40.5686 24.9839 39.4349C23.2842 38.3013 21.9589 36.689 21.1757 34.802C20.3925 32.915 20.1866 30.8381 20.584 28.8341C20.9814 26.83 21.9642 24.9889 23.4082 23.5435C24.8522 22.0982 26.6924 21.1136 28.6961 20.7143C30.6997 20.315 32.7768 20.5189 34.6645 21.3003C36.5523 22.0817 38.1658 23.4054 39.3011 25.104C40.4364 26.8026 41.0423 28.7998 41.0423 30.8429C41.0398 32.2008 40.7694 33.5449 40.2468 34.7982C39.7242 36.0515 38.9595 37.1895 37.9965 38.1469C37.0336 39.1044 35.8913 39.8626 34.635 40.378C33.3787 40.8935 32.0331 41.1562 30.6752 41.151L30.7244 41.1707ZM106.294 106.295H88.4813V78.4097C88.4813 71.7704 88.3633 63.223 79.2257 63.223C70.088 63.223 68.5339 70.4622 68.5339 77.9769V106.295H50.7505V48.9804H67.8257V56.8492H68.0618C70.4421 52.3444 76.2454 47.5936 84.9109 47.5936C102.95 47.5542 106.294 59.4263 106.294 74.8196V106.295Z" fill="#888888"/>
</svg>
