<svg width="128" height="128" viewBox="0 0 128 128" fill="none" xmlns="http://www.w3.org/2000/svg">
<path d="M111.715 39.2743C111.788 40.3322 111.788 41.3901 111.788 42.4577C111.788 74.9893 87.0226 112.508 41.738 112.508V112.488C28.3608 112.508 15.2614 108.676 4 101.451C5.94516 101.685 7.90006 101.802 9.85984 101.807C20.9458 101.817 31.7148 98.0971 40.4363 91.2477C29.9013 91.0478 20.663 84.1788 17.4357 74.1508C21.1261 74.8625 24.9287 74.7163 28.5509 73.7266C17.0652 71.4061 8.80195 61.3145 8.80195 49.5948C8.80195 49.4876 8.80195 49.3852 8.80195 49.2828C12.2243 51.189 16.0561 52.2469 19.9756 52.3639C9.15783 45.1341 5.82328 30.7429 12.3559 19.4912C24.8556 34.8721 43.298 44.2225 63.0957 45.2121C61.1115 36.6612 63.8221 27.7008 70.2182 21.6899C80.1341 12.3687 95.7294 12.8465 105.051 22.7575C110.564 21.6704 115.849 19.6472 120.685 16.7807C118.847 22.4796 115.001 27.3206 109.862 30.3968C114.742 29.8215 119.51 28.515 124 26.5211C120.695 31.4742 116.531 35.7886 111.715 39.2743Z" fill="#888888"/>
</svg>
