<svg width="186" height="128" viewBox="0 0 186 128" fill="none" xmlns="http://www.w3.org/2000/svg">
<path fill-rule="evenodd" clip-rule="evenodd" d="M159.752 7.67058C167.094 9.64705 172.882 15.4353 174.859 22.7765C178.529 36.1882 178.388 64.141 178.388 64.141C178.388 64.141 178.388 91.9525 174.859 105.365C172.882 112.706 167.094 118.494 159.752 120.47C146.341 124 92.6942 124 92.6942 124C92.6942 124 39.1882 124 25.6353 120.329C18.2941 118.353 12.5059 112.565 10.5294 105.223C7 91.9525 7 64 7 64C7 64 7 36.1882 10.5294 22.7765C12.5059 15.4353 18.4353 9.50587 25.6353 7.5294C39.047 4 92.6942 4 92.6942 4C92.6942 4 146.341 4 159.752 7.67058ZM75.6117 38.3063L120.224 64.0006L75.6117 89.6941V38.3063Z" fill="#888888"/>
</svg>
