<svg width="130" height="128" viewBox="0 0 130 128" fill="none" xmlns="http://www.w3.org/2000/svg">
<path fill-rule="evenodd" clip-rule="evenodd" d="M82.8313 7.00675C83.8114 8.22346 84.3112 9.86532 85.3108 13.1491L107.148 84.8853C99.0743 80.6968 90.2972 77.676 81.0405 76.0462L66.8222 27.9981C66.5896 27.2119 65.8674 26.6726 65.0476 26.6726C64.2256 26.6726 63.5022 27.2147 63.2715 28.0037L49.2252 76.0219C39.9257 77.6444 31.1085 80.6707 23 84.8743L44.9445 13.1325H44.9446C45.9473 9.85443 46.4486 8.21539 47.4289 7.00084C48.2941 5.92864 49.4196 5.09593 50.6981 4.58206C52.1462 4 53.8602 4 57.2882 4H72.9621C76.3947 4 78.1108 4 79.5603 4.58328C80.8399 5.0982 81.966 5.93259 82.8313 7.00675Z" fill="#888888"/>
<path fill-rule="evenodd" clip-rule="evenodd" d="M85.4444 88.2992C81.8445 91.3775 74.6591 93.4769 66.3825 93.4769C56.2241 93.4769 47.7097 90.3143 45.4504 86.0611C44.6427 88.4986 44.4616 91.2884 44.4616 93.0706C44.4616 93.0706 43.9295 101.821 50.016 107.908C50.016 104.748 52.578 102.186 55.7384 102.186C61.1554 102.186 61.1493 106.912 61.1444 110.746C61.1442 110.861 61.144 110.975 61.144 111.088C61.144 116.908 64.701 121.896 69.7595 124C69.0039 122.446 68.5801 120.7 68.5801 118.857C68.5801 113.306 71.8387 111.239 75.6258 108.837C78.6392 106.926 81.9872 104.803 84.2945 100.543C85.4984 98.3208 86.182 95.7757 86.182 93.0706C86.182 91.4071 85.9236 89.804 85.4444 88.2992Z" fill="#888888"/>
</svg>
