<svg width="120" height="128" viewBox="0 0 120 128" fill="none" xmlns="http://www.w3.org/2000/svg">
<g clip-path="url(#clip0_7_23)">
<path d="M81.7755 110.65L93.5302 103.609L116.56 62.9998L80.9222 104.622L81.7755 110.65Z" fill="#888888"/>
<path d="M113.208 37.5628L110.907 33.1715L110.005 31.4604L109.911 31.552L97.8504 9.58887C94.8244 4.04081 89.0542 0.574996 82.6906 0.501694L70.9772 0.597903L87.8951 53.6297L76.7028 64.5288L80.8718 104.819L115.333 65.5677C120.007 60.1548 120.925 52.4454 117.632 46.1128L113.21 37.5628H113.208Z" fill="#888888"/>
<path d="M93.9505 33.7545L73.7787 0.629974L38.9659 0.00117907C32.7776 -0.0698324 27.0153 3.07071 23.7683 8.34846L3.2746 47.5319L19.3644 31.9598L39.5683 3.90337L85.2997 56.2961L93.8486 47.5949C97.7714 43.7912 96.4371 38.4585 93.9517 33.7557L93.9505 33.7545Z" fill="#888888"/>
<path d="M45.6799 44.5013L39.4847 4.10838L5.31334 45.232C-0.44546 50.8076 -1.64578 59.5557 2.31482 66.4828L22.3927 101.392C25.4543 106.747 31.1546 110.07 37.3533 110.141L57.4151 110.37L33.3823 55.8746L45.6799 44.5013Z" fill="#888888"/>
<path d="M80.9234 104.595L33.3457 55.602L27.1815 61.4834C22.1305 66.2709 21.993 74.2517 26.8413 79.1984L47.3911 110.21L80.3954 110.634L80.9222 104.595H80.9234Z" fill="#888888"/>
<path d="M47.4552 110.203L81.2269 104.784L103.512 127.892L47.4552 110.203Z" fill="#888888"/>
<path d="M80.8695 104.868L93.5611 103.253L104.818 126.571C105.312 127.533 104.015 128.429 103.242 127.647L80.8695 104.868Z" fill="#888888"/>
<path d="M85.3524 56.0853L39.5592 4.01791L45.3993 44.1738L33.2426 55.4886L80.7859 104.713L77.2376 64.5827L85.3524 56.0842V56.0853Z" fill="#666666"/>
</g>
<defs>
<clipPath id="clip0_7_23">
<rect width="119.591" height="128" fill="white"/>
</clipPath>
</defs>
</svg>
