<svg width="137" height="128" viewBox="0 0 137 128" fill="none" xmlns="http://www.w3.org/2000/svg">
<path d="M132.96 29.4256C132.96 29.4256 89.9731 -2.20596 56.7193 5.09364L54.2861 5.9047C49.4197 7.52684 45.3644 9.96004 42.9312 13.2043L41.3091 15.6375L29.1431 36.7252L50.2308 40.7806C59.1525 46.458 70.5075 48.8912 81.0513 46.458L118.36 53.7576L132.96 29.4256Z" fill="#888888"/>
<path d="M42.9313 29.4256L39.687 30.2367C25.8989 34.292 21.8435 47.2691 29.1431 58.624C37.2538 69.1679 54.2862 74.8453 68.0743 70.79L118.36 53.7576C118.36 53.7576 75.3739 22.126 42.9313 29.4256Z" fill="#888888"/>
<path d="M109.439 65.9236C104.898 60.2507 98.7668 56.0623 91.8311 53.8948C84.8954 51.7274 77.4705 51.6796 70.5074 53.7576L20.2213 69.979L4 98.3663L94.8394 113.777L111.061 84.5782C114.305 78.9007 113.494 72.4122 109.439 65.9236Z" fill="#666666"/>
<path d="M93.2173 94.311C88.6764 88.638 82.5455 84.4496 75.6098 82.2822C68.674 80.1148 61.2492 80.067 54.2861 82.145L4 98.3663C4 98.3663 46.9865 130.809 80.2403 122.698L82.6735 121.887C96.4616 117.832 101.328 104.855 93.2173 94.311Z" fill="#666666"/>
</svg>
