<svg width="130" height="128" viewBox="0 0 130 128" fill="none" xmlns="http://www.w3.org/2000/svg">
<path d="M124.453 21.761L68.1534 122.434C66.991 124.512 64.0047 124.524 62.8249 122.456L5.40937 21.7707C4.12402 19.5166 6.05147 16.7864 8.60573 17.2429L64.9652 27.3169C65.3247 27.3811 65.6928 27.3805 66.0523 27.315L121.233 17.2574C123.779 16.7934 125.715 19.5025 124.453 21.761Z" fill="#666666"/>
<path d="M91.8122 4.02954L50.1492 12.1933C49.4644 12.3274 48.9574 12.9077 48.9161 13.6042L46.3532 56.8888C46.2929 57.9083 47.2292 58.6996 48.2243 58.4701L59.8239 55.7931C60.9092 55.5428 61.8898 56.4987 61.6668 57.5901L58.2205 74.4657C57.9886 75.6014 59.0549 76.5726 60.1641 76.2357L67.3286 74.059C68.4393 73.7218 69.5065 74.6958 69.2715 75.8325L63.7948 102.34C63.4521 103.998 65.6576 104.902 66.5774 103.481L67.1918 102.531L101.141 34.7795C101.71 33.6451 100.729 32.3516 99.4834 32.592L87.5436 34.8964C86.4215 35.1127 85.4669 34.0678 85.7836 32.9701L93.5765 5.9549C93.8935 4.8553 92.9355 3.80948 91.8122 4.02954Z" fill="#888888"/>
</svg>
